<svg width="350" height="61" viewBox="0 0 350 61" fill="none" xmlns="http://www.w3.org/2000/svg">
<path d="M17.5781 58.6719C21.4062 58.6719 24.5573 57.6562 27.0312 55.625C29.5312 53.5938 30.8984 50.7812 31.1328 47.1875H33.2422C33.0339 51.276 31.4583 54.5703 28.5156 57.0703C25.5729 59.5443 21.9271 60.7812 17.5781 60.7812C12.2917 60.7812 8.08594 58.8672 4.96094 55.0391C1.86198 51.2109 0.3125 46.0156 0.3125 39.4531V38.0469C0.3125 31.6406 1.86198 26.5234 4.96094 22.6953C8.08594 18.8672 12.2656 16.9531 17.5 16.9531C21.9792 16.9531 25.6771 18.2943 28.5938 20.9766C31.5104 23.6589 33.0599 27.2266 33.2422 31.6797H31.1328C30.9505 27.8776 29.6094 24.8307 27.1094 22.5391C24.6354 20.2214 21.4323 19.0625 17.5 19.0625C12.7865 19.0625 9.08854 20.7682 6.40625 24.1797C3.75 27.5651 2.42188 32.2786 2.42188 38.3203V39.6875C2.42188 45.599 3.76302 50.2474 6.44531 53.6328C9.15365 56.9922 12.8646 58.6719 17.5781 58.6719ZM71.1719 60C70.651 58.2031 70.3906 55.625 70.3906 52.2656C68.724 54.974 66.4453 57.0703 63.5547 58.5547C60.6641 60.0391 57.3958 60.7812 53.75 60.7812C49.8438 60.7812 46.6927 59.7266 44.2969 57.6172C41.9271 55.4818 40.7422 52.7083 40.7422 49.2969C40.7422 45.4167 42.487 42.3177 45.9766 40C49.4922 37.6562 54.1536 36.4583 59.9609 36.4062H70.3906V30.2344C70.3906 26.6927 69.2708 23.9453 67.0312 21.9922C64.8177 20.0391 61.6406 19.0625 57.5 19.0625C53.6458 19.0625 50.4297 20.0521 47.8516 22.0312C45.2734 24.0104 43.9844 26.4583 43.9844 29.375L41.875 29.2969C41.875 25.8594 43.3854 22.9427 46.4062 20.5469C49.4271 18.151 53.125 16.9531 57.5 16.9531C62.0573 16.9531 65.6771 18.099 68.3594 20.3906C71.0417 22.6562 72.4219 25.8594 72.5 30V50.1953C72.5 54.8307 72.8646 57.9818 73.5938 59.6484V60H71.1719ZM53.75 58.7109C57.7083 58.7109 61.1068 57.8255 63.9453 56.0547C66.8099 54.2839 68.9583 51.7969 70.3906 48.5938V38.5547H60.625C54.5833 38.5547 49.9609 39.7526 46.7578 42.1484C44.1536 44.1016 42.8516 46.5365 42.8516 49.4531C42.8516 52.0312 43.8802 54.2188 45.9375 56.0156C47.9948 57.8125 50.599 58.7109 53.75 58.7109ZM88.75 60H86.6406V0H88.75V60ZM117.812 60.7812C114.401 60.7812 111.263 59.8698 108.398 58.0469C105.56 56.1979 103.333 53.6719 101.719 50.4688C100.104 47.2656 99.2969 43.7109 99.2969 39.8047V38.0469C99.2969 34.1406 100.078 30.5599 101.641 27.3047C103.203 24.0495 105.352 21.5104 108.086 19.6875C110.82 17.8646 113.802 16.9531 117.031 16.9531C121.745 16.9531 125.599 18.6328 128.594 21.9922C131.589 25.3516 133.086 29.7656 133.086 35.2344V37.4609H101.406V39.7656C101.406 43.2031 102.122 46.3932 103.555 49.3359C105.013 52.2526 107.005 54.5443 109.531 56.2109C112.083 57.8776 114.844 58.7109 117.812 58.7109C120.651 58.7109 123.06 58.2422 125.039 57.3047C127.044 56.3411 128.815 54.8698 130.352 52.8906L131.836 53.9453C128.685 58.5026 124.01 60.7812 117.812 60.7812ZM117.031 19.0625C112.917 19.0625 109.427 20.599 106.562 23.6719C103.698 26.7188 102.018 30.612 101.523 35.3516H130.977V34.8438C130.977 31.9792 130.365 29.3229 129.141 26.875C127.943 24.401 126.276 22.487 124.141 21.1328C122.031 19.7526 119.661 19.0625 117.031 19.0625ZM145.039 27.5781C146.419 24.2969 148.451 21.7057 151.133 19.8047C153.815 17.9036 156.784 16.9531 160.039 16.9531C164.57 16.9531 167.93 18.2422 170.117 20.8203C172.331 23.3724 173.451 27.2396 173.477 32.4219V60H171.367V32.3438C171.341 27.8125 170.417 24.4661 168.594 22.3047C166.771 20.1172 163.88 19.0234 159.922 19.0234C156.276 19.0234 153.112 20.3255 150.43 22.9297C147.773 25.5078 145.977 28.8411 145.039 32.9297V60H142.93V17.7344H145.039V27.5781ZM184.805 38.4375C184.805 31.6927 186.224 26.4323 189.062 22.6562C191.901 18.8542 195.794 16.9531 200.742 16.9531C203.919 16.9531 206.719 17.6693 209.141 19.1016C211.589 20.5339 213.568 22.6693 215.078 25.5078V0H217.188V60H215.078V53.2422C213.646 55.638 211.68 57.5 209.18 58.8281C206.68 60.1302 203.841 60.7812 200.664 60.7812C195.768 60.7812 191.901 58.8411 189.062 54.9609C186.224 51.0807 184.805 45.7552 184.805 38.9844V38.4375ZM186.992 39.2578C186.992 45.2474 188.177 49.987 190.547 53.4766C192.917 56.9401 196.276 58.6719 200.625 58.6719C204.115 58.6719 207.096 57.9036 209.57 56.3672C212.044 54.8047 213.88 52.526 215.078 49.5312V29.7266C212.656 22.6172 207.865 19.0625 200.703 19.0625C196.38 19.0625 193.008 20.7682 190.586 24.1797C188.19 27.5911 186.992 32.6172 186.992 39.2578ZM257.891 60C257.37 58.2031 257.109 55.625 257.109 52.2656C255.443 54.974 253.164 57.0703 250.273 58.5547C247.383 60.0391 244.115 60.7812 240.469 60.7812C236.562 60.7812 233.411 59.7266 231.016 57.6172C228.646 55.4818 227.461 52.7083 227.461 49.2969C227.461 45.4167 229.206 42.3177 232.695 40C236.211 37.6562 240.872 36.4583 246.68 36.4062H257.109V30.2344C257.109 26.6927 255.99 23.9453 253.75 21.9922C251.536 20.0391 248.359 19.0625 244.219 19.0625C240.365 19.0625 237.148 20.0521 234.57 22.0312C231.992 24.0104 230.703 26.4583 230.703 29.375L228.594 29.2969C228.594 25.8594 230.104 22.9427 233.125 20.5469C236.146 18.151 239.844 16.9531 244.219 16.9531C248.776 16.9531 252.396 18.099 255.078 20.3906C257.76 22.6562 259.141 25.8594 259.219 30V50.1953C259.219 54.8307 259.583 57.9818 260.312 59.6484V60H257.891ZM240.469 58.7109C244.427 58.7109 247.826 57.8255 250.664 56.0547C253.529 54.2839 255.677 51.7969 257.109 48.5938V38.5547H247.344C241.302 38.5547 236.68 39.7526 233.477 42.1484C230.872 44.1016 229.57 46.5365 229.57 49.4531C229.57 52.0312 230.599 54.2188 232.656 56.0156C234.714 57.8125 237.318 58.7109 240.469 58.7109ZM252.227 0H254.805L247.188 10.3906H244.844L252.227 0ZM291.484 19.2578L288.75 19.0234C285.156 19.0234 282.148 20.1953 279.727 22.5391C277.305 24.8568 275.716 28.112 274.961 32.3047V60H272.852V17.7344H274.961V26.5234C276.107 23.5807 277.826 21.25 280.117 19.5312C282.409 17.8125 285.286 16.9531 288.75 16.9531C289.974 16.9531 290.964 17.0964 291.719 17.3828L291.484 19.2578ZM302.266 60H300.156V17.7344H302.266V60ZM299.062 4.53125C299.062 3.93229 299.271 3.42448 299.688 3.00781C300.104 2.5651 300.612 2.34375 301.211 2.34375C301.81 2.34375 302.318 2.5651 302.734 3.00781C303.177 3.42448 303.398 3.93229 303.398 4.53125C303.398 5.13021 303.177 5.63802 302.734 6.05469C302.318 6.47135 301.81 6.67969 301.211 6.67969C300.612 6.67969 300.104 6.47135 299.688 6.05469C299.271 5.63802 299.062 5.13021 299.062 4.53125ZM312.93 38.0469C312.93 34.0104 313.698 30.3906 315.234 27.1875C316.797 23.9583 318.984 21.4453 321.797 19.6484C324.635 17.8516 327.839 16.9531 331.406 16.9531C334.948 16.9531 338.125 17.8255 340.938 19.5703C343.75 21.3151 345.938 23.7891 347.5 26.9922C349.089 30.1953 349.896 33.8021 349.922 37.8125V39.6875C349.922 43.75 349.154 47.3828 347.617 50.5859C346.081 53.7891 343.893 56.2891 341.055 58.0859C338.242 59.8828 335.052 60.7812 331.484 60.7812C327.917 60.7812 324.714 59.8958 321.875 58.125C319.062 56.3542 316.875 53.8802 315.312 50.7031C313.75 47.5 312.956 43.9062 312.93 39.9219V38.0469ZM315.039 39.6875C315.039 43.2031 315.729 46.4323 317.109 49.375C318.516 52.2917 320.456 54.5703 322.93 56.2109C325.43 57.8516 328.281 58.6719 331.484 58.6719C336.302 58.6719 340.221 56.862 343.242 53.2422C346.289 49.6224 347.812 44.9609 347.812 39.2578V38.0469C347.812 34.5833 347.109 31.3802 345.703 28.4375C344.297 25.4948 342.344 23.2031 339.844 21.5625C337.37 19.8958 334.557 19.0625 331.406 19.0625C326.589 19.0625 322.656 20.8984 319.609 24.5703C316.562 28.2422 315.039 32.8646 315.039 38.4375V39.6875Z" fill="#CFCBCB"/>
</svg>
