<svg width="469" height="174" viewBox="0 0 469 174" fill="none" xmlns="http://www.w3.org/2000/svg">
<g clip-path="url(#clip0)">
<g opacity="0.24">
<g opacity="0.8">
<rect width="313" height="27" rx="2.25753" fill="#855CF8"/>
</g>
</g>
<g opacity="0.24">
<g opacity="0.8">
<rect y="36" width="219" height="27" rx="2.25753" fill="#855CF8"/>
</g>
</g>
<g opacity="0.24">
<g opacity="0.8">
<rect y="72" width="197" height="27" rx="2.25753" fill="#855CF8"/>
</g>
</g>
<g opacity="0.24">
<g opacity="0.8">
<rect y="108" width="253" height="27" rx="2.25753" fill="#855CF8"/>
</g>
</g>
<g opacity="0.24">
<g opacity="0.8">
<rect y="144.482" width="350" height="27" rx="2.25753" fill="#855CF8"/>
</g>
</g>
<g opacity="0.4">
<g opacity="0.8">
<path d="M0 2.25753C0 1.01073 1.01073 0 2.25753 0L150.742 0C151.989 0 153 1.01073 153 2.25753V24.7425C153 25.9893 151.989 27 150.742 27H2.25753C1.01073 27 0 25.9893 0 24.7425L0 2.25753Z" fill="#855CF8"/>
<path d="M0 2.25753C0 1.01073 1.01073 0 2.25753 0L150.742 0C151.989 0 153 1.01073 153 2.25753V24.7425C153 25.9893 151.989 27 150.742 27H2.25753C1.01073 27 0 25.9893 0 24.7425L0 2.25753Z" fill="#855CF8"/>
</g>
</g>
<g opacity="0.4">
<g opacity="0.8">
<rect y="36" width="153" height="27" rx="2.25753" fill="#855CF8"/>
</g>
</g>
<g opacity="0.4">
<g opacity="0.8">
<rect y="72.2407" width="129" height="27" rx="2.25753" fill="#855CF8"/>
</g>
</g>
<g opacity="0.4">
<g opacity="0.8">
<rect y="108.361" width="99" height="27" rx="2.25753" fill="#855CF8"/>
</g>
</g>
<g opacity="0.4">
<g opacity="0.8">
<rect y="144.482" width="197" height="27" rx="2.25753" fill="#855CF8"/>
</g>
<path d="M7.86915 162V154.121H9.58487V160.476H12.5874V162H7.86915ZM20.5889 162L20.0245 160.126H17.3945L16.8301 162H15.0918L17.688 154.121H19.8101L22.3724 162H20.5889ZM18.7265 155.679H18.67L17.8009 158.67H19.6069L18.7265 155.679ZM30.6978 162H24.7266V160.476L28.6096 155.645H24.9185V154.121H30.6075V155.645L26.7133 160.476H30.6978V162ZM33.7051 162V154.121H39.0667V155.645H35.4208V157.259H38.5475V158.772H35.4208V160.476H39.0667V162H33.7051ZM43.9703 162H42.2546V154.121H45.9908C46.352 154.121 46.6794 154.181 46.9728 154.302C47.2663 154.422 47.5146 154.595 47.7178 154.821C47.9285 155.039 48.0903 155.303 48.2032 155.611C48.3161 155.92 48.3725 156.262 48.3725 156.638C48.3725 157.173 48.2521 157.639 48.0113 158.038C47.778 158.437 47.4206 158.727 46.939 158.907L48.4854 162H46.5778L45.2007 159.11H43.9703V162ZM45.7763 157.666C46.0322 157.666 46.2316 157.602 46.3746 157.474C46.5251 157.338 46.6003 157.143 46.6003 156.887V156.39C46.6003 156.134 46.5251 155.942 46.3746 155.814C46.2316 155.679 46.0322 155.611 45.7763 155.611H43.9703V157.666H45.7763Z" fill="white"/>
</g>
<path d="M14.7526 18L14.1882 16.1262H11.5582L10.9938 18H9.25554L11.8517 10.1212H13.9738L16.5361 18H14.7526ZM12.8902 11.6789H12.8337L11.9646 14.6701H13.7706L12.8902 11.6789ZM19.3193 18V10.1212H21.035V16.4762H24.0375V18H19.3193ZM26.6932 18V16.6342H27.7091V11.487H26.6932V10.1212H30.4407V11.487H29.4248V16.6342H30.4407V18H26.6932ZM39.4555 12.8303H39.4216L38.8459 13.9816L37.3108 16.7696L35.8096 13.9929L35.2113 12.7512H35.1774V18H33.5633V10.1212H35.3806L37.3108 13.8123H37.3334L39.241 10.1212H41.0696V18H39.4555V12.8303ZM44.5048 18V10.1212H49.8665V11.6451H46.2206V13.2592H49.3472V14.7717H46.2206V16.4762H49.8665V18H44.5048ZM55.4586 14.2751L54.7023 12.6948H54.6685V18H53.0544V10.1212H54.9281L57.084 13.8461L57.8403 15.4264H57.8742V10.1212H59.4883V18H57.6146L55.4586 14.2751ZM66.2003 11.6451V18H64.4846V11.6451H62.3512V10.1212H68.3337V11.6451H66.2003ZM75.3157 18L74.7513 16.1262H72.1213L71.5569 18H69.8186L72.4148 10.1212H74.5369L77.0992 18H75.3157ZM73.4533 11.6789H73.3968L72.5277 14.6701H74.3337L73.4533 11.6789ZM82.7238 11.5096C82.2196 11.5096 81.8132 11.6752 81.5047 12.0063C81.2037 12.3298 81.0532 12.8039 81.0532 13.4285V14.6927C81.0532 15.3173 81.2037 15.7951 81.5047 16.1262C81.8132 16.4498 82.2196 16.6116 82.7238 16.6116C83.1452 16.6116 83.48 16.4987 83.7284 16.273C83.9842 16.0397 84.1723 15.7613 84.2928 15.4377L85.6924 16.2504C85.3989 16.8524 85.0152 17.319 84.5411 17.6501C84.067 17.9737 83.48 18.1355 82.7802 18.1355L82.6786 18.6208L82.7238 18.666C82.8141 18.6434 82.9044 18.6246 82.9947 18.6095C83.085 18.5945 83.1753 18.587 83.2656 18.587C83.4913 18.587 83.6832 18.6472 83.8412 18.7676C84.0068 18.888 84.0896 19.0874 84.0896 19.3658C84.0896 19.5615 84.0482 19.7232 83.9654 19.8512C83.8826 19.9791 83.7698 20.0845 83.6268 20.1672C83.4913 20.25 83.3333 20.3064 83.1527 20.3365C82.9721 20.3742 82.7877 20.393 82.5996 20.393C82.2083 20.393 81.8998 20.3365 81.674 20.2237C81.4558 20.1183 81.2978 20.0092 81.1999 19.8963L81.7192 19.2642C81.7944 19.3545 81.8922 19.4298 82.0126 19.49C82.1406 19.5577 82.2911 19.5916 82.4642 19.5916C82.6071 19.5916 82.7238 19.569 82.8141 19.5238C82.9119 19.4787 82.9608 19.4072 82.9608 19.3094C82.9608 19.2642 82.9495 19.2191 82.9269 19.1739C82.9044 19.1288 82.8592 19.0836 82.7915 19.0385C82.7313 19.0008 82.6448 18.9632 82.5319 18.9256C82.4265 18.8955 82.2873 18.8729 82.1142 18.8579L81.8772 18.8353L82.0352 18.079C81.1698 17.9511 80.4851 17.556 79.9809 16.8938C79.4842 16.2241 79.2359 15.2985 79.2359 14.117C79.2359 13.4548 79.3187 12.8679 79.4842 12.3562C79.6498 11.8369 79.883 11.4042 80.184 11.0581C80.4851 10.7044 80.85 10.4373 81.2789 10.2567C81.7079 10.0761 82.1895 9.98577 82.7238 9.98577C83.4537 9.98577 84.0557 10.1363 84.5298 10.4373C85.0039 10.7308 85.3839 11.1973 85.6698 11.8369L84.1912 12.6045C84.0858 12.2734 83.9203 12.01 83.6945 11.8144C83.4763 11.6112 83.1527 11.5096 82.7238 11.5096ZM93.3517 18L92.7873 16.1262H90.1573L89.5929 18H87.8546L90.4508 10.1212H92.5729L95.1352 18H93.3517ZM91.4892 11.6789H91.4328L90.5637 14.6701H92.3697L91.4892 11.6789ZM92.3132 9.39881C92.1402 9.39881 91.9859 9.37624 91.8504 9.33108C91.7225 9.28593 91.5871 9.23326 91.4441 9.17306C91.2785 9.10533 91.128 9.04889 90.9926 9.00374C90.8571 8.95107 90.7142 8.92473 90.5637 8.92473C90.4357 8.92473 90.3229 8.9473 90.225 8.99245C90.1272 9.03761 90.0181 9.10909 89.8977 9.20692L89.3107 8.43936C89.4462 8.23618 89.6193 8.06687 89.83 7.93142C90.0407 7.78844 90.2965 7.71695 90.5975 7.71695C90.7706 7.71695 90.9211 7.73953 91.049 7.78468C91.1845 7.82983 91.3237 7.8825 91.4667 7.9427C91.6322 8.01043 91.7827 8.07063 91.9182 8.12331C92.0536 8.16846 92.1966 8.19103 92.3471 8.19103C92.475 8.19103 92.5879 8.16846 92.6857 8.12331C92.7836 8.07816 92.8927 8.00667 93.0131 7.90884L93.6 8.6764C93.4646 8.87958 93.2915 9.05266 93.0808 9.19563C92.8701 9.33108 92.6142 9.39881 92.3132 9.39881ZM100.737 18.1355C100.218 18.1355 99.7439 18.0489 99.3149 17.8758C98.886 17.7028 98.521 17.4469 98.22 17.1083C97.919 16.7621 97.6858 16.337 97.5202 15.8328C97.3546 15.3211 97.2719 14.7303 97.2719 14.0606C97.2719 13.3909 97.3546 12.8039 97.5202 12.2997C97.6858 11.788 97.919 11.3629 98.22 11.0242C98.521 10.6781 98.886 10.4185 99.3149 10.2454C99.7439 10.0723 100.218 9.98577 100.737 9.98577C101.256 9.98577 101.73 10.0723 102.159 10.2454C102.588 10.4185 102.953 10.6781 103.254 11.0242C103.555 11.3629 103.789 11.788 103.954 12.2997C104.12 12.8039 104.202 13.3909 104.202 14.0606C104.202 14.7303 104.12 15.3211 103.954 15.8328C103.789 16.337 103.555 16.7621 103.254 17.1083C102.953 17.4469 102.588 17.7028 102.159 17.8758C101.73 18.0489 101.256 18.1355 100.737 18.1355ZM100.737 16.6116C101.256 16.6116 101.659 16.4423 101.945 16.1037C102.238 15.765 102.385 15.2797 102.385 14.6476V13.4737C102.385 12.8415 102.238 12.3562 101.945 12.0175C101.659 11.6789 101.256 11.5096 100.737 11.5096C100.218 11.5096 99.8116 11.6789 99.5181 12.0175C99.2322 12.3562 99.0892 12.8415 99.0892 13.4737V14.6476C99.0892 15.2797 99.2322 15.765 99.5181 16.1037C99.8116 16.4423 100.218 16.6116 100.737 16.6116Z" fill="white"/>
<path d="M8.89893 54.1206V46.2418H14.2606V47.7657H10.6147V49.3798H13.7413V50.8923H10.6147V52.5968H14.2606V54.1206H8.89893ZM19.8527 50.3957L19.0964 48.8154H19.0626V54.1206H17.4484V46.2418H19.3222L21.4781 49.9667L22.2344 51.547H22.2683V46.2418H23.8824V54.1206H22.0087L19.8527 50.3957ZM27.3097 54.1206V46.2418H32.6713V47.7657H29.0254V49.3798H32.1521V50.8923H29.0254V52.5968H32.6713V54.1206H27.3097ZM37.5749 54.1206H35.8592V46.2418H39.5954C39.9566 46.2418 40.284 46.302 40.5775 46.4224C40.8709 46.5428 41.1193 46.7159 41.3224 46.9417C41.5331 47.1599 41.6949 47.4233 41.8078 47.7318C41.9207 48.0403 41.9771 48.3827 41.9771 48.759C41.9771 49.2933 41.8567 49.7598 41.6159 50.1586C41.3826 50.5575 41.0252 50.8472 40.5436 51.0278L42.09 54.1206H40.1824L38.8053 51.231H37.5749V54.1206ZM39.381 49.7861C39.6368 49.7861 39.8362 49.7222 39.9792 49.5943C40.1297 49.4588 40.205 49.2632 40.205 49.0073V48.5106C40.205 48.2548 40.1297 48.0629 39.9792 47.935C39.8362 47.7995 39.6368 47.7318 39.381 47.7318H37.5749V49.7861H39.381ZM50.0485 52.8677H49.9921C49.9319 53.2665 49.7287 53.5976 49.3825 53.861C49.0364 54.1244 48.5661 54.2561 47.9716 54.2561C47.5201 54.2561 47.0987 54.1695 46.7074 53.9964C46.3161 53.8234 45.9737 53.5675 45.6802 53.2289C45.3867 52.8903 45.1572 52.4688 44.9916 51.9647C44.8261 51.4605 44.7433 50.8773 44.7433 50.2151C44.7433 49.5529 44.8298 48.9659 45.0029 48.4542C45.176 47.9425 45.4168 47.5136 45.7253 47.1674C46.0414 46.8213 46.4176 46.5579 46.8541 46.3773C47.2906 46.1967 47.7759 46.1064 48.3102 46.1064C49.0176 46.1064 49.6271 46.2606 50.1388 46.5692C50.6505 46.8702 51.0531 47.3254 51.3466 47.935L49.9469 48.7364C49.8265 48.4279 49.6384 48.1683 49.3825 47.9575C49.1267 47.7393 48.7692 47.6302 48.3102 47.6302C47.7759 47.6302 47.3508 47.7845 47.0347 48.093C46.7186 48.4015 46.5606 48.8869 46.5606 49.5491V50.8133C46.5606 51.468 46.7186 51.9534 47.0347 52.2694C47.3508 52.578 47.7759 52.7322 48.3102 52.7322C48.5209 52.7322 48.7203 52.7096 48.9085 52.6645C49.0966 52.6118 49.2621 52.5366 49.4051 52.4387C49.5481 52.3334 49.6572 52.2092 49.7324 52.0663C49.8152 51.9233 49.8566 51.754 49.8566 51.5583V51.1632H48.3892V49.7297H51.4933V54.1206H50.0485V52.8677ZM54.5495 54.1206V52.7548H55.5653V47.6076H54.5495V46.2418H58.297V47.6076H57.2811V52.7548H58.297V54.1206H54.5495ZM66.2733 54.1206L65.7089 52.2469H63.0789L62.5145 54.1206H60.7762L63.3723 46.2418H65.4944L68.0567 54.1206H66.2733ZM64.4108 47.7995H64.3544L63.4852 50.7907H65.2912L64.4108 47.7995ZM75.2006 54.1206V46.2418H80.5623V47.7657H76.9164V49.3798H80.043V50.8923H76.9164V52.5968H80.5623V54.1206H75.2006ZM83.7502 54.1206V46.2418H85.4659V52.5968H88.4684V54.1206H83.7502ZM91.4288 54.1206V46.2418H96.7905V47.7657H93.1446V49.3798H96.2713V50.8923H93.1446V52.5968H96.7905V54.1206H91.4288ZM94.2959 45.7677L93.3026 45.2824L94.4201 43.0926L95.8085 43.7811L94.2959 45.7677ZM103.263 47.7657V54.1206H101.547V47.7657H99.414V46.2418H105.396V47.7657H103.263ZM109.979 54.1206H108.263V46.2418H112C112.361 46.2418 112.688 46.302 112.982 46.4224C113.275 46.5428 113.523 46.7159 113.727 46.9417C113.937 47.1599 114.099 47.4233 114.212 47.7318C114.325 48.0403 114.381 48.3827 114.381 48.759C114.381 49.2933 114.261 49.7598 114.02 50.1586C113.787 50.5575 113.429 50.8472 112.948 51.0278L114.494 54.1206H112.586L111.209 51.231H109.979V54.1206ZM111.785 49.7861C112.041 49.7861 112.24 49.7222 112.383 49.5943C112.534 49.4588 112.609 49.2632 112.609 49.0073V48.5106C112.609 48.2548 112.534 48.0629 112.383 47.935C112.24 47.7995 112.041 47.7318 111.785 47.7318H109.979V49.7861H111.785ZM117.258 54.1206V52.7548H118.274V47.6076H117.258V46.2418H121.005V47.6076H119.989V52.7548H121.005V54.1206H117.258ZM127.311 54.2561C126.777 54.2561 126.295 54.1733 125.866 54.0077C125.437 53.8347 125.072 53.5826 124.771 53.2515C124.47 52.9128 124.237 52.4952 124.071 51.9985C123.906 51.4943 123.823 50.9074 123.823 50.2377C123.823 49.5754 123.906 48.9885 124.071 48.4768C124.237 47.9575 124.47 47.5249 124.771 47.1787C125.072 46.825 125.437 46.5579 125.866 46.3773C126.295 46.1967 126.777 46.1064 127.311 46.1064C128.041 46.1064 128.643 46.2569 129.117 46.5579C129.591 46.8514 129.971 47.3179 130.257 47.9575L128.778 48.7251C128.673 48.394 128.507 48.1306 128.282 47.935C128.063 47.7318 127.74 47.6302 127.311 47.6302C126.807 47.6302 126.4 47.7958 126.092 48.1269C125.791 48.4504 125.64 48.9245 125.64 49.5491V50.8133C125.64 51.4379 125.791 51.9158 126.092 52.2469C126.4 52.5704 126.807 52.7322 127.311 52.7322C127.732 52.7322 128.067 52.6193 128.315 52.3936C128.571 52.1603 128.759 51.8819 128.88 51.5583L130.28 52.371C129.986 52.973 129.599 53.4396 129.117 53.7707C128.643 54.0943 128.041 54.2561 127.311 54.2561ZM137.939 54.1206L137.374 52.2469H134.744L134.18 54.1206H132.442L135.038 46.2418H137.16L139.722 54.1206H137.939ZM136.076 47.7995H136.02L135.151 50.7907H136.957L136.076 47.7995Z" fill="white"/>
<path d="M14.7526 90.2407L14.1882 88.367H11.5582L10.9938 90.2407H9.25554L11.8517 82.3619H13.9738L16.5361 90.2407H14.7526ZM12.8902 83.9196H12.8337L11.9646 86.9109H13.7706L12.8902 83.9196ZM13.0369 81.8879L12.0436 81.4025L13.1611 79.2127L14.5494 79.9012L13.0369 81.8879ZM23.978 88.9878H23.9215C23.8613 89.3866 23.6582 89.7177 23.312 89.9811C22.9659 90.2445 22.4955 90.3762 21.9011 90.3762C21.4496 90.3762 21.0281 90.2896 20.6368 90.1166C20.2455 89.9435 19.9031 89.6876 19.6097 89.349C19.3162 89.0104 19.0867 88.589 18.9211 88.0848C18.7556 87.5806 18.6728 86.9974 18.6728 86.3352C18.6728 85.673 18.7593 85.086 18.9324 84.5743C19.1055 84.0626 19.3463 83.6337 19.6548 83.2875C19.9709 82.9414 20.3471 82.678 20.7836 82.4974C21.22 82.3168 21.7054 82.2265 22.2397 82.2265C22.947 82.2265 23.5566 82.3808 24.0683 82.6893C24.58 82.9903 24.9826 83.4456 25.2761 84.0551L23.8764 84.8565C23.756 84.548 23.5679 84.2884 23.312 84.0777C23.0562 83.8594 22.6987 83.7503 22.2397 83.7503C21.7054 83.7503 21.2802 83.9046 20.9642 84.2131C20.6481 84.5216 20.4901 85.007 20.4901 85.6692V86.9334C20.4901 87.5881 20.6481 88.0735 20.9642 88.3895C21.2802 88.6981 21.7054 88.8523 22.2397 88.8523C22.4504 88.8523 22.6498 88.8298 22.8379 88.7846C23.0261 88.7319 23.1916 88.6567 23.3346 88.5589C23.4776 88.4535 23.5867 88.3293 23.6619 88.1864C23.7447 88.0434 23.7861 87.8741 23.7861 87.6784V87.2834H22.3187V85.8498H25.4228V90.2407H23.978V88.9878ZM30.4091 82.3619V87.1931C30.4091 87.7499 30.5182 88.1676 30.7365 88.446C30.9547 88.7169 31.3197 88.8523 31.8314 88.8523C32.3431 88.8523 32.708 88.7169 32.9263 88.446C33.1445 88.1676 33.2536 87.7499 33.2536 87.1931V82.3619H34.9242V87.0125C34.9242 87.5919 34.8677 88.0961 34.7549 88.525C34.6495 88.9464 34.4727 89.2963 34.2243 89.5748C33.976 89.8457 33.6562 90.0488 33.2649 90.1843C32.8736 90.3122 32.3957 90.3762 31.8314 90.3762C31.267 90.3762 30.7891 90.3122 30.3978 90.1843C30.0065 90.0488 29.6867 89.8457 29.4384 89.5748C29.1901 89.2963 29.0095 88.9464 28.8966 88.525C28.7912 88.0961 28.7386 87.5919 28.7386 87.0125V82.3619H30.4091ZM42.8814 90.2407L42.317 88.367H39.687L39.1226 90.2407H37.3843L39.9804 82.3619H42.1025L44.6648 90.2407H42.8814ZM41.0189 83.9196H40.9625L40.0933 86.9109H41.8993L41.0189 83.9196Z" fill="white"/>
<path d="M12.0523 126.135C11.518 126.135 11.0364 126.053 10.6074 125.887C10.1785 125.714 9.81355 125.462 9.51255 125.131C9.21154 124.792 8.97826 124.375 8.81271 123.878C8.64716 123.374 8.56438 122.787 8.56438 122.117C8.56438 121.455 8.64716 120.868 8.81271 120.356C8.97826 119.837 9.21154 119.404 9.51255 119.058C9.81355 118.704 10.1785 118.437 10.6074 118.257C11.0364 118.076 11.518 117.986 12.0523 117.986C12.7822 117.986 13.3842 118.136 13.8583 118.437C14.3324 118.731 14.7124 119.197 14.9983 119.837L13.5197 120.605C13.4143 120.273 13.2488 120.01 13.023 119.814C12.8048 119.611 12.4812 119.51 12.0523 119.51C11.5481 119.51 11.1417 119.675 10.8332 120.006C10.5322 120.33 10.3817 120.804 10.3817 121.429V122.693C10.3817 123.317 10.5322 123.795 10.8332 124.126C11.1417 124.45 11.5481 124.612 12.0523 124.612C12.4737 124.612 12.8085 124.499 13.0569 124.273C13.3127 124.04 13.5008 123.761 13.6213 123.438L15.0209 124.25C14.7274 124.852 14.3399 125.319 13.8583 125.65C13.3842 125.974 12.7822 126.135 12.0523 126.135ZM20.9319 126.135C20.4127 126.135 19.9386 126.049 19.5097 125.876C19.0808 125.703 18.7158 125.447 18.4148 125.108C18.1138 124.762 17.8805 124.337 17.715 123.833C17.5494 123.321 17.4666 122.73 17.4666 122.061C17.4666 121.391 17.5494 120.804 17.715 120.3C17.8805 119.788 18.1138 119.363 18.4148 119.024C18.7158 118.678 19.0808 118.418 19.5097 118.245C19.9386 118.072 20.4127 117.986 20.9319 117.986C21.4512 117.986 21.9253 118.072 22.3542 118.245C22.7831 118.418 23.1481 118.678 23.4491 119.024C23.7501 119.363 23.9834 119.788 24.1489 120.3C24.3145 120.804 24.3973 121.391 24.3973 122.061C24.3973 122.73 24.3145 123.321 24.1489 123.833C23.9834 124.337 23.7501 124.762 23.4491 125.108C23.1481 125.447 22.7831 125.703 22.3542 125.876C21.9253 126.049 21.4512 126.135 20.9319 126.135ZM20.9319 124.612C21.4512 124.612 21.8538 124.442 22.1397 124.104C22.4332 123.765 22.5799 123.28 22.5799 122.648V121.474C22.5799 120.842 22.4332 120.356 22.1397 120.018C21.8538 119.679 21.4512 119.51 20.9319 119.51C20.4127 119.51 20.0064 119.679 19.7129 120.018C19.4269 120.356 19.2839 120.842 19.2839 121.474V122.648C19.2839 123.28 19.4269 123.765 19.7129 124.104C20.0064 124.442 20.4127 124.612 20.9319 124.612ZM33.4146 120.83H33.3807L32.8051 121.982L31.2699 124.77L29.7687 121.993L29.1704 120.751H29.1366V126H27.5224V118.121H29.3397L31.2699 121.812H31.2925L33.2001 118.121H35.0287V126H33.4146V120.83ZM38.464 118.121H42.2905C42.9452 118.121 43.4531 118.306 43.8143 118.674C44.183 119.043 44.3674 119.532 44.3674 120.142C44.3674 120.443 44.326 120.699 44.2432 120.909C44.168 121.12 44.0626 121.293 43.9272 121.429C43.7993 121.564 43.645 121.666 43.4644 121.733C43.2913 121.793 43.1032 121.827 42.9 121.835V121.903C43.0881 121.903 43.2838 121.936 43.487 122.004C43.6977 122.072 43.8896 122.181 44.0626 122.332C44.2357 122.474 44.3787 122.663 44.4916 122.896C44.612 123.129 44.6722 123.415 44.6722 123.754C44.6722 124.062 44.6195 124.356 44.5141 124.634C44.4163 124.905 44.2771 125.142 44.0965 125.345C43.9159 125.548 43.7014 125.71 43.4531 125.831C43.2048 125.944 42.9339 126 42.6404 126H38.464V118.121ZM40.1797 124.555H42.155C42.3808 124.555 42.5576 124.495 42.6855 124.375C42.821 124.247 42.8887 124.07 42.8887 123.844V123.46C42.8887 123.235 42.821 123.061 42.6855 122.941C42.5576 122.813 42.3808 122.749 42.155 122.749H40.1797V124.555ZM40.1797 121.349H41.8841C42.1099 121.349 42.2867 121.286 42.4146 121.158C42.5426 121.03 42.6065 120.853 42.6065 120.627V120.288C42.6065 120.063 42.5426 119.886 42.4146 119.758C42.2867 119.63 42.1099 119.566 41.8841 119.566H40.1797V121.349ZM49.3113 118.121V122.952C49.3113 123.509 49.4204 123.927 49.6386 124.205C49.8569 124.476 50.2218 124.612 50.7335 124.612C51.2453 124.612 51.6102 124.476 51.8284 124.205C52.0467 123.927 52.1558 123.509 52.1558 122.952V118.121H53.8264V122.772C53.8264 123.351 53.7699 123.855 53.657 124.284C53.5517 124.706 53.3749 125.056 53.1265 125.334C52.8782 125.605 52.5584 125.808 52.1671 125.944C51.7758 126.071 51.2979 126.135 50.7335 126.135C50.1692 126.135 49.6913 126.071 49.3 125.944C48.9087 125.808 48.5889 125.605 48.3406 125.334C48.0922 125.056 47.9116 124.706 47.7988 124.284C47.6934 123.855 47.6407 123.351 47.6407 122.772V118.121H49.3113ZM50.9141 117.647L49.9208 117.162L51.0383 114.972L52.4267 115.661L50.9141 117.647ZM59.7675 126.135C59.0751 126.135 58.4882 126.019 58.0066 125.786C57.525 125.545 57.1149 125.236 56.7762 124.86L57.905 123.72C58.4393 124.322 59.0977 124.623 59.8803 124.623C60.3017 124.623 60.614 124.536 60.8172 124.363C61.0204 124.19 61.122 123.961 61.122 123.675C61.122 123.457 61.0618 123.276 60.9414 123.133C60.821 122.982 60.5764 122.881 60.2077 122.828L59.4288 122.727C58.5935 122.621 57.9802 122.369 57.5889 121.97C57.2052 121.571 57.0133 121.041 57.0133 120.379C57.0133 120.025 57.081 119.701 57.2164 119.408C57.3519 119.115 57.5438 118.862 57.7921 118.652C58.048 118.441 58.3565 118.279 58.7177 118.166C59.0864 118.046 59.5041 117.986 59.9706 117.986C60.5651 117.986 61.0881 118.08 61.5396 118.268C61.9911 118.456 62.3787 118.731 62.7022 119.092L61.5622 120.243C61.3741 120.025 61.1445 119.848 60.8736 119.713C60.6103 119.57 60.2754 119.498 59.869 119.498C59.4853 119.498 59.1993 119.566 59.0112 119.701C58.8231 119.837 58.729 120.025 58.729 120.266C58.729 120.537 58.8005 120.732 58.9435 120.853C59.094 120.973 59.3348 121.06 59.6659 121.112L60.4447 121.237C61.2574 121.365 61.8594 121.617 62.2507 121.993C62.642 122.362 62.8377 122.888 62.8377 123.573C62.8377 123.949 62.77 124.296 62.6345 124.612C62.4991 124.928 62.2997 125.199 62.0363 125.424C61.7804 125.65 61.4606 125.827 61.0768 125.955C60.693 126.075 60.2566 126.135 59.7675 126.135ZM68.9735 119.645V126H67.2578V119.645H65.1244V118.121H71.1069V119.645H68.9735ZM73.6249 126V124.634H74.6408V119.487H73.6249V118.121H77.3724V119.487H76.3565V124.634H77.3724V126H73.6249ZM82.3236 126L79.7839 118.121H81.5222L82.6961 121.903L83.3169 124.375H83.3508L83.949 121.903L85.123 118.121H86.8048L84.2425 126H82.3236ZM89.5295 126V118.121H94.8912V119.645H91.2453V121.259H94.372V122.772H91.2453V124.476H94.8912V126H89.5295ZM98.0791 126V118.121H99.7948V124.476H102.797V126H98.0791Z" fill="white"/>
</g>
<defs>
<clipPath id="clip0">
<rect width="469" height="174" fill="white"/>
</clipPath>
</defs>
</svg>
