<svg width="1102" height="234" viewBox="0 0 1102 234" fill="none" xmlns="http://www.w3.org/2000/svg">
<g clip-path="url(#clip0)">
<path d="M565.95 130.378H562.132V132.424H565.95V130.378Z" fill="#E6E6E6"/>
<path d="M927.047 132.424H919.524V130.378H927.047V132.424ZM912.001 132.424H904.478V130.378H912.001V132.424ZM896.956 132.424H889.433V130.378H896.956V132.424ZM881.91 132.424H874.387V130.378H881.91V132.424ZM866.864 132.424H859.342V130.378H866.864V132.424ZM851.818 132.424H844.296V130.378H851.818L851.818 132.424ZM836.773 132.424H829.25V130.378H836.773V132.424ZM821.727 132.424H814.204V130.378H821.727V132.424ZM806.681 132.424H799.159V130.378H806.681V132.424ZM791.636 132.424H784.113V130.378H791.636L791.636 132.424ZM776.59 132.424H769.067V130.378H776.59L776.59 132.424ZM761.544 132.424H754.021V130.378H761.544L761.544 132.424ZM746.499 132.424H738.976V130.378H746.499L746.499 132.424ZM731.453 132.424H723.93V130.378H731.453L731.453 132.424ZM716.407 132.424H708.884V130.378H716.407L716.407 132.424ZM701.361 132.424H693.838V130.378H701.361L701.361 132.424ZM686.316 132.424H678.793V130.378H686.316L686.316 132.424ZM671.27 132.424H663.747V130.378H671.27L671.27 132.424ZM656.224 132.424H648.701V130.378H656.224L656.224 132.424ZM641.178 132.424H633.656V130.378H641.178L641.178 132.424ZM626.133 132.424H618.61V130.378H626.133L626.133 132.424ZM611.087 132.424H603.564V130.378H611.087L611.087 132.424ZM596.041 132.424H588.519V130.378H596.042L596.041 132.424ZM580.996 132.424H573.473V130.378H580.996L580.996 132.424Z" fill="#E6E6E6"/>
<path d="M565.95 78.4243H562.132V80.4697H565.95V78.4243Z" fill="#E6E6E6"/>
<path d="M927.047 80.4697H919.524V78.4243H927.047V80.4697ZM912.001 80.4697H904.478V78.4243H912.001V80.4697ZM896.956 80.4697H889.433V78.4243H896.956V80.4697ZM881.91 80.4697H874.387V78.4243H881.91V80.4697ZM866.864 80.4697H859.342V78.4243H866.864V80.4697ZM851.818 80.4697H844.296V78.4243H851.818L851.818 80.4697ZM836.773 80.4697H829.25V78.4243H836.773V80.4697ZM821.727 80.4697H814.204V78.4243H821.727V80.4697ZM806.681 80.4697H799.159V78.4243H806.681V80.4697ZM791.636 80.4697H784.113V78.4243H791.636L791.636 80.4697ZM776.59 80.4697H769.067V78.4243H776.59L776.59 80.4697ZM761.544 80.4697H754.021V78.4243H761.544L761.544 80.4697ZM746.499 80.4697H738.976V78.4243H746.499L746.499 80.4697ZM731.453 80.4697H723.93V78.4243H731.453L731.453 80.4697ZM716.407 80.4697H708.884V78.4243H716.407L716.407 80.4697ZM701.361 80.4697H693.838V78.4243H701.361L701.361 80.4697ZM686.316 80.4697H678.793V78.4243H686.316L686.316 80.4697ZM671.27 80.4697H663.747V78.4243H671.27L671.27 80.4697ZM656.224 80.4697H648.701V78.4243H656.224L656.224 80.4697ZM641.178 80.4697H633.656V78.4243H641.178L641.178 80.4697ZM626.133 80.4697H618.61V78.4243H626.133L626.133 80.4697ZM611.087 80.4697H603.564V78.4243H611.087L611.087 80.4697ZM596.041 80.4697H588.519V78.4243H596.042L596.041 80.4697ZM580.996 80.4697H573.473V78.4243H580.996L580.996 80.4697Z" fill="#E6E6E6"/>
<path d="M565.95 26.4712H562.132V28.5166H565.95V26.4712Z" fill="#E6E6E6"/>
<path d="M927.047 28.5166H919.524V26.4712H927.047V28.5166ZM912.001 28.5166H904.478V26.4712H912.001V28.5166ZM896.956 28.5166H889.433V26.4712H896.956V28.5166ZM881.91 28.5166H874.387V26.4712H881.91V28.5166ZM866.864 28.5166H859.342V26.4712H866.864V28.5166ZM851.818 28.5166H844.296V26.4712H851.818L851.818 28.5166ZM836.773 28.5166H829.25V26.4712H836.773V28.5166ZM821.727 28.5166H814.204V26.4712H821.727V28.5166ZM806.681 28.5166H799.159V26.4712H806.681V28.5166ZM791.636 28.5166H784.113V26.4712H791.636L791.636 28.5166ZM776.59 28.5166H769.067V26.4712H776.59L776.59 28.5166ZM761.544 28.5166H754.021V26.4712H761.544L761.544 28.5166ZM746.499 28.5166H738.976V26.4712H746.499L746.499 28.5166ZM731.453 28.5166H723.93V26.4712H731.453L731.453 28.5166ZM716.407 28.5166H708.884V26.4712H716.407L716.407 28.5166ZM701.361 28.5166H693.838V26.4712H701.361L701.361 28.5166ZM686.316 28.5166H678.793V26.4712H686.316L686.316 28.5166ZM671.27 28.5166H663.747V26.4712H671.27L671.27 28.5166ZM656.224 28.5166H648.701V26.4712H656.224L656.224 28.5166ZM641.178 28.5166H633.656V26.4712H641.178L641.178 28.5166ZM626.133 28.5166H618.61V26.4712H626.133L626.133 28.5166ZM611.087 28.5166H603.564V26.4712H611.087L611.087 28.5166ZM596.041 28.5166H588.519V26.4712H596.042L596.041 28.5166ZM580.996 28.5166H573.473V26.4712H580.996L580.996 28.5166Z" fill="#E6E6E6"/>
<path d="M686.521 130.992H655.344V204.627H686.521V130.992Z" fill="#3F3D56"/>
<path d="M692.248 130.992H661.071V204.627H692.248V130.992Z" fill="#6C63FF"/>
<path d="M760.328 79.0381H729.151V204.627H760.328V79.0381Z" fill="#3F3D56"/>
<path d="M766.054 79.0381H734.877V204.627H766.054V79.0381Z" fill="#6C63FF"/>
<path d="M834.134 27.0845H802.957V204.626H834.134V27.0845Z" fill="#3F3D56"/>
<path d="M839.86 27.0845H808.684V204.626H839.86V27.0845Z" fill="#6C63FF"/>
<path d="M562.451 32.4027C566.667 32.4027 570.086 30.2049 570.086 27.4937C570.086 24.7825 566.667 22.5847 562.451 22.5847C558.234 22.5847 554.815 24.7825 554.815 27.4937C554.815 30.2049 558.234 32.4027 562.451 32.4027Z" fill="#E6E6E6"/>
<path d="M562.451 84.3566C566.667 84.3566 570.086 82.1587 570.086 79.4476C570.086 76.7364 566.667 74.5386 562.451 74.5386C558.234 74.5386 554.815 76.7364 554.815 79.4476C554.815 82.1587 558.234 84.3566 562.451 84.3566Z" fill="#E6E6E6"/>
<path d="M562.451 136.31C566.667 136.31 570.086 134.112 570.086 131.401C570.086 128.69 566.667 126.492 562.451 126.492C558.234 126.492 554.815 128.69 554.815 131.401C554.815 134.112 558.234 136.31 562.451 136.31Z" fill="#E6E6E6"/>
<path d="M1018.23 38.3854C1030.19 38.3854 1039.89 32.1514 1039.89 24.4614C1039.89 16.7714 1030.19 10.5374 1018.23 10.5374C1006.27 10.5374 996.576 16.7714 996.576 24.4614C996.576 32.1514 1006.27 38.3854 1018.23 38.3854Z" fill="#2F2E41"/>
<path d="M965.847 116.096L964.676 120.612C964.676 120.612 958.238 136.041 966.432 135.289C974.627 134.536 971.7 121.365 971.7 121.365L972.871 117.225L965.847 116.096Z" fill="#FFB9B9"/>
<path d="M1038.13 94.834H990.723C990.723 94.834 977.261 108.382 982.528 132.09C987.796 155.799 985.455 208.861 985.455 208.861H1003.6L1015.89 125.693L1041.64 208.861L1058.62 207.732L1049.25 111.769L1038.13 94.834Z" fill="#2F2E41"/>
<path d="M990.43 207.543L989.845 221.467C989.845 221.467 982.236 235.391 993.357 233.886C1004.48 232.38 1005.65 229.37 1005.65 228.241C1005.65 227.112 1002.72 207.543 1002.72 207.543H990.43Z" fill="#2F2E41"/>
<path d="M1055.64 206.485L1059 221.376C1059 221.376 1069.31 234.56 1057.98 233.981C1046.65 233.403 1044.89 230.514 1044.67 229.394C1044.45 228.274 1043.45 207.496 1043.45 207.496L1055.64 206.485Z" fill="#2F2E41"/>
<path d="M1018.53 38.1975C1027.25 38.1975 1034.33 33.6484 1034.33 28.0368C1034.33 22.4251 1027.25 17.876 1018.53 17.876C1009.8 17.876 1002.72 22.4251 1002.72 28.0368C1002.72 33.6484 1009.8 38.1975 1018.53 38.1975Z" fill="#FFB9B9"/>
<path d="M1030.52 32.3647L1036.96 46.665L1024.09 54.9441L1017.06 47.0414L1014.72 35.7515L1030.52 32.3647Z" fill="#FFB9B9"/>
<path d="M1036.08 41.9602C1036.08 41.9602 1035.22 38.1645 1033.31 38.557C1031.4 38.9496 1014.43 41.5839 1014.43 42.7128V47.6051L1000.38 82.6033L996.869 96.9037L1033.74 96.5274L1039.6 46.8524L1036.08 41.9602Z" fill="#E6E6E6"/>
<path d="M1032.87 38.0083L1036.96 38.7609L1043.69 43.0887C1043.69 43.0887 1060.08 41.2071 1062.42 46.0993C1064.76 50.9915 1049.55 111.956 1049.55 111.956C1049.55 111.956 1023.79 117.601 1019.7 103.301C1015.6 89.0004 1015.89 76.7698 1024.09 67.738C1032.28 58.7062 1032.87 38.0083 1032.87 38.0083Z" fill="#2F2E41"/>
<path d="M1015.89 41.3667L1013.55 42.1481L1011.5 47.9811C1011.5 47.9811 994.527 50.9917 993.357 55.1313C992.186 59.2709 993.942 81.8504 993.942 81.8504C993.942 81.8504 977.553 103.301 980.48 112.333C980.48 112.333 987.504 116.096 992.771 111.204C998.039 106.312 1010.92 76.9581 1011.5 75.0765C1012.09 73.1949 1018.51 41.9025 1015.89 41.3667Z" fill="#2F2E41"/>
<path d="M999.795 53.6265L993.528 54.7191L989.26 62.6582L980.48 82.9798L963.506 116.473L975.212 119.86L993.942 95.3987L999.795 53.6265Z" fill="#2F2E41"/>
<path d="M1030.52 26.7192C1020.46 24.3856 1017.06 22.952 1005.94 26.7192L1001.84 16.1821H1034.62L1030.52 26.7192Z" fill="#2F2E41"/>
<path d="M1016.48 17.6875C1023.27 17.6875 1028.77 14.1493 1028.77 9.78466C1028.77 5.42005 1023.27 1.88184 1016.48 1.88184C1009.69 1.88184 1004.19 5.42005 1004.19 9.78466C1004.19 14.1493 1009.69 17.6875 1016.48 17.6875Z" fill="#2F2E41"/>
<path d="M1001.84 7.90284C1001.85 5.87328 1003.06 3.92203 1005.24 2.45403C1007.42 0.986032 1010.4 0.114027 1013.55 0.0189947C1013.35 0.0130671 1013.16 0 1012.96 0C1009.7 0 1006.58 0.832618 1004.27 2.31469C1001.97 3.79675 1000.67 5.80687 1000.67 7.90283C1000.67 9.99879 1001.97 12.0089 1004.27 13.491C1006.58 14.973 1009.7 15.8057 1012.96 15.8057C1013.16 15.8057 1013.35 15.7926 1013.55 15.7867C1010.4 15.6916 1007.42 14.8196 1005.24 13.3516C1003.06 11.8836 1001.85 9.93239 1001.84 7.90284Z" fill="#2F2E41"/>
<path d="M1037.98 117.451H992.325V129.941H1037.98V117.451Z" fill="#6C63FF"/>
<path opacity="0.1" d="M1037.98 117.451H992.325V129.941H1037.98V117.451Z" fill="black"/>
<path opacity="0.2" d="M1015.15 127.131C1018.1 127.131 1020.49 125.593 1020.49 123.696C1020.49 121.799 1018.1 120.261 1015.15 120.261C1012.2 120.261 1009.81 121.799 1009.81 123.696C1009.81 125.593 1012.2 127.131 1015.15 127.131Z" fill="black"/>
<path opacity="0.2" d="M1003.01 129.005H994.268V118.388H1003.5V119.012H995.239V128.38H1003.01V129.005Z" fill="black"/>
<path opacity="0.2" d="M1036.04 129.005H1027.29V128.38H1035.06V119.012H1026.81V118.388H1036.04V129.005Z" fill="black"/>
<path d="M1032.29 118.628L988.711 127.377L994.502 139.3L1038.08 130.551L1032.29 118.628Z" fill="#6C63FF"/>
<path opacity="0.2" d="M1013.4 132.4C1016.35 132.4 1018.74 130.862 1018.74 128.965C1018.74 127.068 1016.35 125.53 1013.4 125.53C1010.45 125.53 1008.05 127.068 1008.05 128.965C1008.05 130.862 1010.45 132.4 1013.4 132.4Z" fill="black"/>
<path opacity="0.2" d="M1004.27 136.359L995.922 138.034L991 127.9L999.808 126.131L1000.1 126.727L992.216 128.31L996.559 137.252L1003.98 135.763L1004.27 136.359Z" fill="black"/>
<path opacity="0.2" d="M1035.79 130.03L1027.45 131.705L1027.16 131.109L1034.58 129.62L1030.23 120.678L1022.35 122.26L1022.06 121.663L1030.87 119.895L1035.79 130.03Z" fill="black"/>
<path d="M1037.93 109.868L1035.25 114.11C1035.25 114.11 1028.17 129.423 1021.8 126.024C1015.43 122.625 1028.65 112.387 1028.65 112.387L1031.02 108.466L1037.93 109.868Z" fill="#FFB9B9"/>
<path d="M1054.23 47.2288L1062.42 46.0999C1063.59 48.317 1064.53 50.5795 1065.25 52.8737C1066.42 56.637 1064.61 86.3666 1063.44 89.3773C1062.27 92.3879 1041.05 112.447 1041.05 112.447L1021.94 109.783L1049.55 82.9797L1054.23 47.2288Z" fill="#2F2E41"/>
<path opacity="0.2" d="M1049.83 66.3569L1044.74 84.3566L1025.65 109.311L1042.83 83.1293L1049.83 66.3569Z" fill="black"/>
</g>
<line y1="203.5" x2="1100" y2="203.5" stroke="black" stroke-width="3"/>
<defs>
<clipPath id="clip0">
<rect width="565" height="234" fill="white" transform="translate(537)"/>
</clipPath>
</defs>
</svg>
