<svg width="459" height="289" viewBox="0 0 459 289" fill="none" xmlns="http://www.w3.org/2000/svg">
<circle cx="271" cy="259" r="7" fill="#E289F2"/>
<circle cx="67" cy="260" r="7" fill="#855CF8"/>
<circle cx="169" cy="260" r="7" fill="#ACB9FF"/>
<circle cx="373" cy="260" r="7" fill="#33138E"/>
<path d="M258.745 284V274.545H264.379V275.548H259.882V278.717H263.987V279.72H259.882V284H258.745ZM267.196 275.372C266.961 275.372 266.789 275.318 266.681 275.209C266.582 275.092 266.532 274.943 266.532 274.762V274.586C266.532 274.405 266.582 274.261 266.681 274.153C266.789 274.035 266.961 273.977 267.196 273.977C267.431 273.977 267.598 274.035 267.697 274.153C267.805 274.261 267.859 274.405 267.859 274.586V274.762C267.859 274.943 267.805 275.092 267.697 275.209C267.598 275.318 267.431 275.372 267.196 275.372ZM266.654 277.011H267.738V284H266.654V277.011ZM269.625 284L272.212 280.478L269.733 277.011H271.006L272.781 279.611H272.822L274.664 277.011H275.869L273.404 280.397L275.923 284H274.65L272.835 281.264H272.794L270.83 284H269.625ZM280.291 284.163C279.821 284.163 279.393 284.077 279.004 283.905C278.616 283.734 278.282 283.49 278.002 283.174C277.731 282.849 277.519 282.465 277.365 282.022C277.212 281.571 277.135 281.065 277.135 280.505C277.135 279.955 277.212 279.453 277.365 279.002C277.519 278.55 277.731 278.167 278.002 277.85C278.282 277.525 278.616 277.277 279.004 277.106C279.393 276.934 279.821 276.848 280.291 276.848C280.761 276.848 281.185 276.934 281.564 277.106C281.953 277.277 282.287 277.525 282.567 277.85C282.847 278.167 283.063 278.55 283.217 279.002C283.37 279.453 283.447 279.955 283.447 280.505C283.447 281.065 283.37 281.571 283.217 282.022C283.063 282.465 282.847 282.849 282.567 283.174C282.287 283.49 281.953 283.734 281.564 283.905C281.185 284.077 280.761 284.163 280.291 284.163ZM280.291 283.201C280.878 283.201 281.357 283.02 281.727 282.659C282.097 282.298 282.282 281.747 282.282 281.007V280.004C282.282 279.264 282.097 278.713 281.727 278.352C281.357 277.99 280.878 277.81 280.291 277.81C279.704 277.81 279.225 277.99 278.855 278.352C278.485 278.713 278.3 279.264 278.3 280.004V281.007C278.3 281.747 278.485 282.298 278.855 282.659C279.225 283.02 279.704 283.201 280.291 283.201ZM287.78 284.163C287.13 284.163 286.584 284.041 286.141 283.797C285.708 283.544 285.333 283.21 285.017 282.794L285.789 282.171C286.06 282.515 286.362 282.781 286.697 282.971C287.031 283.151 287.419 283.241 287.861 283.241C288.322 283.241 288.679 283.142 288.932 282.943C289.193 282.745 289.324 282.465 289.324 282.104C289.324 281.833 289.234 281.603 289.053 281.413C288.882 281.214 288.566 281.079 288.105 281.007L287.55 280.925C287.225 280.88 286.927 280.812 286.656 280.722C286.385 280.623 286.146 280.496 285.938 280.343C285.739 280.18 285.581 279.982 285.464 279.747C285.356 279.512 285.301 279.232 285.301 278.907C285.301 278.564 285.365 278.266 285.491 278.013C285.617 277.751 285.789 277.534 286.006 277.363C286.232 277.191 286.498 277.065 286.805 276.984C287.112 276.893 287.442 276.848 287.794 276.848C288.363 276.848 288.837 276.947 289.216 277.146C289.604 277.345 289.943 277.62 290.232 277.972L289.514 278.623C289.36 278.406 289.135 278.212 288.837 278.04C288.539 277.86 288.164 277.769 287.712 277.769C287.261 277.769 286.918 277.869 286.683 278.067C286.457 278.257 286.344 278.519 286.344 278.853C286.344 279.196 286.457 279.444 286.683 279.598C286.918 279.751 287.252 279.864 287.685 279.936L288.227 280.018C289.004 280.135 289.555 280.361 289.88 280.695C290.205 281.02 290.367 281.449 290.367 281.982C290.367 282.659 290.137 283.192 289.677 283.58C289.216 283.968 288.584 284.163 287.78 284.163Z" fill="#263238"/>
<path d="M366.813 284V283.052H368.14V275.494H366.813V274.545H370.605V275.494H369.278V283.052H370.605V284H366.813ZM373.026 284V277.011H374.11V278.148H374.164C374.336 277.751 374.575 277.435 374.882 277.2C375.198 276.966 375.618 276.848 376.142 276.848C376.864 276.848 377.433 277.083 377.848 277.552C378.273 278.013 378.485 278.668 378.485 279.517V284H377.401V279.706C377.401 278.451 376.873 277.823 375.817 277.823C375.6 277.823 375.388 277.85 375.18 277.905C374.981 277.959 374.801 278.04 374.638 278.148C374.476 278.257 374.345 278.397 374.245 278.568C374.155 278.731 374.11 278.925 374.11 279.151V284H373.026ZM382.615 284L380.163 277.011H381.247L382.466 280.478L383.224 282.862H383.292L384.05 280.478L385.297 277.011H386.339L383.874 284H382.615ZM390.711 284.163C390.232 284.163 389.799 284.077 389.41 283.905C389.031 283.734 388.701 283.49 388.422 283.174C388.151 282.849 387.938 282.465 387.785 282.022C387.64 281.571 387.568 281.065 387.568 280.505C387.568 279.955 387.64 279.453 387.785 279.002C387.938 278.55 388.151 278.167 388.422 277.85C388.701 277.525 389.031 277.277 389.41 277.106C389.799 276.934 390.232 276.848 390.711 276.848C391.18 276.848 391.6 276.934 391.97 277.106C392.341 277.277 392.657 277.516 392.919 277.823C393.18 278.121 393.379 278.478 393.514 278.893C393.659 279.309 393.731 279.765 393.731 280.262V280.776H388.706V281.101C388.706 281.399 388.751 281.679 388.841 281.941C388.941 282.194 389.076 282.415 389.248 282.605C389.428 282.794 389.645 282.943 389.898 283.052C390.16 283.16 390.453 283.214 390.778 283.214C391.221 283.214 391.605 283.111 391.93 282.903C392.264 282.695 392.521 282.397 392.702 282.009L393.474 282.564C393.248 283.043 392.896 283.431 392.417 283.729C391.939 284.018 391.37 284.163 390.711 284.163ZM390.711 277.756C390.413 277.756 390.142 277.81 389.898 277.918C389.654 278.018 389.442 278.162 389.261 278.352C389.09 278.541 388.954 278.767 388.855 279.029C388.756 279.282 388.706 279.562 388.706 279.869V279.964H392.566V279.815C392.566 279.191 392.395 278.695 392.052 278.325C391.717 277.945 391.271 277.756 390.711 277.756ZM398.068 284.163C397.418 284.163 396.871 284.041 396.429 283.797C395.995 283.544 395.621 283.21 395.305 282.794L396.077 282.171C396.348 282.515 396.65 282.781 396.984 282.971C397.318 283.151 397.707 283.241 398.149 283.241C398.61 283.241 398.966 283.142 399.219 282.943C399.481 282.745 399.612 282.465 399.612 282.104C399.612 281.833 399.522 281.603 399.341 281.413C399.17 281.214 398.853 281.079 398.393 281.007L397.838 280.925C397.513 280.88 397.215 280.812 396.944 280.722C396.673 280.623 396.433 280.496 396.226 280.343C396.027 280.18 395.869 279.982 395.752 279.747C395.643 279.512 395.589 279.232 395.589 278.907C395.589 278.564 395.652 278.266 395.779 278.013C395.905 277.751 396.077 277.534 396.293 277.363C396.519 277.191 396.786 277.065 397.093 276.984C397.4 276.893 397.729 276.848 398.081 276.848C398.65 276.848 399.124 276.947 399.504 277.146C399.892 277.345 400.231 277.62 400.52 277.972L399.802 278.623C399.648 278.406 399.422 278.212 399.124 278.04C398.826 277.86 398.452 277.769 398 277.769C397.549 277.769 397.205 277.869 396.971 278.067C396.745 278.257 396.632 278.519 396.632 278.853C396.632 279.196 396.745 279.444 396.971 279.598C397.205 279.751 397.54 279.864 397.973 279.936L398.515 280.018C399.291 280.135 399.842 280.361 400.167 280.695C400.492 281.02 400.655 281.449 400.655 281.982C400.655 282.659 400.425 283.192 399.964 283.58C399.504 283.968 398.872 284.163 398.068 284.163ZM404.472 284C404.093 284 403.804 283.896 403.605 283.688C403.416 283.472 403.321 283.192 403.321 282.849V277.959H402.169V277.011H402.82C403.054 277.011 403.212 276.966 403.294 276.875C403.384 276.776 403.429 276.609 403.429 276.374V275.074H404.404V277.011H405.935V277.959H404.404V283.052H405.827V284H404.472ZM408.67 275.372C408.435 275.372 408.264 275.318 408.155 275.209C408.056 275.092 408.006 274.943 408.006 274.762V274.586C408.006 274.405 408.056 274.261 408.155 274.153C408.264 274.035 408.435 273.977 408.67 273.977C408.905 273.977 409.072 274.035 409.171 274.153C409.279 274.261 409.334 274.405 409.334 274.586V274.762C409.334 274.943 409.279 275.092 409.171 275.209C409.072 275.318 408.905 275.372 408.67 275.372ZM408.128 277.011H409.212V284H408.128V277.011ZM411.966 284V277.011H413.05V278.148H413.104C413.185 277.968 413.275 277.801 413.375 277.647C413.483 277.485 413.609 277.345 413.754 277.227C413.907 277.11 414.084 277.02 414.282 276.957C414.481 276.884 414.716 276.848 414.987 276.848C415.447 276.848 415.871 276.961 416.26 277.187C416.648 277.403 416.937 277.765 417.127 278.27H417.154C417.28 277.891 417.515 277.562 417.858 277.282C418.21 276.993 418.684 276.848 419.28 276.848C419.994 276.848 420.549 277.083 420.946 277.552C421.353 278.013 421.556 278.668 421.556 279.517V284H420.472V279.706C420.472 279.083 420.35 278.614 420.107 278.297C419.863 277.981 419.474 277.823 418.942 277.823C418.725 277.823 418.517 277.85 418.319 277.905C418.129 277.959 417.957 278.04 417.804 278.148C417.65 278.257 417.529 278.397 417.438 278.568C417.348 278.731 417.303 278.925 417.303 279.151V284H416.219V279.706C416.219 279.083 416.097 278.614 415.853 278.297C415.61 277.981 415.23 277.823 414.716 277.823C414.499 277.823 414.291 277.85 414.093 277.905C413.894 277.959 413.718 278.04 413.564 278.148C413.411 278.257 413.284 278.397 413.185 278.568C413.095 278.731 413.05 278.925 413.05 279.151V284H411.966ZM426.871 284.163C426.392 284.163 425.959 284.077 425.57 283.905C425.191 283.734 424.862 283.49 424.582 283.174C424.311 282.849 424.099 282.465 423.945 282.022C423.801 281.571 423.728 281.065 423.728 280.505C423.728 279.955 423.801 279.453 423.945 279.002C424.099 278.55 424.311 278.167 424.582 277.85C424.862 277.525 425.191 277.277 425.57 277.106C425.959 276.934 426.392 276.848 426.871 276.848C427.34 276.848 427.76 276.934 428.131 277.106C428.501 277.277 428.817 277.516 429.079 277.823C429.341 278.121 429.539 278.478 429.675 278.893C429.819 279.309 429.891 279.765 429.891 280.262V280.776H424.866V281.101C424.866 281.399 424.911 281.679 425.002 281.941C425.101 282.194 425.236 282.415 425.408 282.605C425.589 282.794 425.805 282.943 426.058 283.052C426.32 283.16 426.613 283.214 426.939 283.214C427.381 283.214 427.765 283.111 428.09 282.903C428.424 282.695 428.681 282.397 428.862 282.009L429.634 282.564C429.408 283.043 429.056 283.431 428.577 283.729C428.099 284.018 427.53 284.163 426.871 284.163ZM426.871 277.756C426.573 277.756 426.302 277.81 426.058 277.918C425.814 278.018 425.602 278.162 425.421 278.352C425.25 278.541 425.114 278.767 425.015 279.029C424.916 279.282 424.866 279.562 424.866 279.869V279.964H428.726V279.815C428.726 279.191 428.555 278.695 428.212 278.325C427.878 277.945 427.431 277.756 426.871 277.756ZM432.129 284V277.011H433.212V278.148H433.266C433.438 277.751 433.677 277.435 433.984 277.2C434.3 276.966 434.72 276.848 435.244 276.848C435.966 276.848 436.535 277.083 436.951 277.552C437.375 278.013 437.587 278.668 437.587 279.517V284H436.504V279.706C436.504 278.451 435.975 277.823 434.919 277.823C434.702 277.823 434.49 277.85 434.282 277.905C434.084 277.959 433.903 278.04 433.74 278.148C433.578 278.257 433.447 278.397 433.348 278.568C433.257 278.731 433.212 278.925 433.212 279.151V284H432.129ZM441.823 284C441.443 284 441.154 283.896 440.956 283.688C440.766 283.472 440.671 283.192 440.671 282.849V277.959H439.52V277.011H440.17C440.405 277.011 440.563 276.966 440.644 276.875C440.735 276.776 440.78 276.609 440.78 276.374V275.074H441.755V277.011H443.286V277.959H441.755V283.052H443.177V284H441.823ZM448.067 284.163C447.598 284.163 447.169 284.077 446.78 283.905C446.392 283.734 446.058 283.49 445.778 283.174C445.507 282.849 445.295 282.465 445.141 282.022C444.988 281.571 444.911 281.065 444.911 280.505C444.911 279.955 444.988 279.453 445.141 279.002C445.295 278.55 445.507 278.167 445.778 277.85C446.058 277.525 446.392 277.277 446.78 277.106C447.169 276.934 447.598 276.848 448.067 276.848C448.537 276.848 448.961 276.934 449.34 277.106C449.729 277.277 450.063 277.525 450.343 277.85C450.623 278.167 450.839 278.55 450.993 279.002C451.146 279.453 451.223 279.955 451.223 280.505C451.223 281.065 451.146 281.571 450.993 282.022C450.839 282.465 450.623 282.849 450.343 283.174C450.063 283.49 449.729 283.734 449.34 283.905C448.961 284.077 448.537 284.163 448.067 284.163ZM448.067 283.201C448.654 283.201 449.133 283.02 449.503 282.659C449.873 282.298 450.058 281.747 450.058 281.007V280.004C450.058 279.264 449.873 278.713 449.503 278.352C449.133 277.99 448.654 277.81 448.067 277.81C447.48 277.81 447.002 277.99 446.631 278.352C446.261 278.713 446.076 279.264 446.076 280.004V281.007C446.076 281.747 446.261 282.298 446.631 282.659C447.002 283.02 447.48 283.201 448.067 283.201ZM455.556 284.163C454.906 284.163 454.36 284.041 453.917 283.797C453.484 283.544 453.109 283.21 452.793 282.794L453.565 282.171C453.836 282.515 454.139 282.781 454.473 282.971C454.807 283.151 455.195 283.241 455.638 283.241C456.098 283.241 456.455 283.142 456.708 282.943C456.97 282.745 457.101 282.465 457.101 282.104C457.101 281.833 457.01 281.603 456.83 281.413C456.658 281.214 456.342 281.079 455.881 281.007L455.326 280.925C455.001 280.88 454.703 280.812 454.432 280.722C454.161 280.623 453.922 280.496 453.714 280.343C453.516 280.18 453.358 279.982 453.24 279.747C453.132 279.512 453.078 279.232 453.078 278.907C453.078 278.564 453.141 278.266 453.267 278.013C453.394 277.751 453.565 277.534 453.782 277.363C454.008 277.191 454.274 277.065 454.581 276.984C454.888 276.893 455.218 276.848 455.57 276.848C456.139 276.848 456.613 276.947 456.992 277.146C457.38 277.345 457.719 277.62 458.008 277.972L457.29 278.623C457.137 278.406 456.911 278.212 456.613 278.04C456.315 277.86 455.94 277.769 455.489 277.769C455.037 277.769 454.694 277.869 454.459 278.067C454.233 278.257 454.121 278.519 454.121 278.853C454.121 279.196 454.233 279.444 454.459 279.598C454.694 279.751 455.028 279.864 455.462 279.936L456.003 280.018C456.78 280.135 457.331 280.361 457.656 280.695C457.981 281.02 458.144 281.449 458.144 281.982C458.144 282.659 457.913 283.192 457.453 283.58C456.992 283.968 456.36 284.163 455.556 284.163Z" fill="#263238"/>
<path d="M156.26 284V274.545H162.03V275.548H157.397V278.717H161.759V279.72H157.397V282.998H162.03V284H156.26ZM164.5 284V277.011H165.583V278.148H165.638C165.719 277.968 165.809 277.801 165.908 277.647C166.017 277.485 166.143 277.345 166.288 277.227C166.441 277.11 166.617 277.02 166.816 276.957C167.015 276.884 167.249 276.848 167.52 276.848C167.981 276.848 168.405 276.961 168.794 277.187C169.182 277.403 169.471 277.765 169.661 278.27H169.688C169.814 277.891 170.049 277.562 170.392 277.282C170.744 276.993 171.218 276.848 171.814 276.848C172.528 276.848 173.083 277.083 173.48 277.552C173.887 278.013 174.09 278.668 174.09 279.517V284H173.006V279.706C173.006 279.083 172.884 278.614 172.64 278.297C172.397 277.981 172.008 277.823 171.476 277.823C171.259 277.823 171.051 277.85 170.852 277.905C170.663 277.959 170.491 278.04 170.338 278.148C170.184 278.257 170.062 278.397 169.972 278.568C169.882 278.731 169.837 278.925 169.837 279.151V284H168.753V279.706C168.753 279.083 168.631 278.614 168.387 278.297C168.143 277.981 167.764 277.823 167.249 277.823C167.033 277.823 166.825 277.85 166.626 277.905C166.428 277.959 166.252 278.04 166.098 278.148C165.945 278.257 165.818 278.397 165.719 278.568C165.629 278.731 165.583 278.925 165.583 279.151V284H164.5ZM179.405 284.163C178.926 284.163 178.493 284.077 178.104 283.905C177.725 283.734 177.395 283.49 177.116 283.174C176.845 282.849 176.632 282.465 176.479 282.022C176.334 281.571 176.262 281.065 176.262 280.505C176.262 279.955 176.334 279.453 176.479 279.002C176.632 278.55 176.845 278.167 177.116 277.85C177.395 277.525 177.725 277.277 178.104 277.106C178.493 276.934 178.926 276.848 179.405 276.848C179.874 276.848 180.294 276.934 180.664 277.106C181.035 277.277 181.351 277.516 181.613 277.823C181.874 278.121 182.073 278.478 182.208 278.893C182.353 279.309 182.425 279.765 182.425 280.262V280.776H177.4V281.101C177.4 281.399 177.445 281.679 177.535 281.941C177.635 282.194 177.77 282.415 177.942 282.605C178.122 282.794 178.339 282.943 178.592 283.052C178.854 283.16 179.147 283.214 179.472 283.214C179.915 283.214 180.299 283.111 180.624 282.903C180.958 282.695 181.215 282.397 181.396 282.009L182.168 282.564C181.942 283.043 181.59 283.431 181.111 283.729C180.633 284.018 180.064 284.163 179.405 284.163ZM179.405 277.756C179.107 277.756 178.836 277.81 178.592 277.918C178.348 278.018 178.136 278.162 177.955 278.352C177.784 278.541 177.648 278.767 177.549 279.029C177.45 279.282 177.4 279.562 177.4 279.869V279.964H181.26V279.815C181.26 279.191 181.089 278.695 180.746 278.325C180.411 277.945 179.965 277.756 179.405 277.756ZM184.662 284V277.011H185.746V278.297H185.814C185.94 277.963 186.166 277.665 186.491 277.403C186.816 277.142 187.263 277.011 187.832 277.011H188.252V278.094H187.615C187.028 278.094 186.568 278.207 186.234 278.433C185.909 278.65 185.746 278.925 185.746 279.259V284H184.662ZM195.662 284.772C195.662 285.494 195.378 286.023 194.809 286.357C194.249 286.7 193.405 286.872 192.276 286.872C191.183 286.872 190.398 286.723 189.919 286.425C189.44 286.127 189.201 285.702 189.201 285.151C189.201 284.772 189.3 284.474 189.499 284.257C189.698 284.05 189.969 283.896 190.312 283.797V283.648C189.896 283.449 189.689 283.124 189.689 282.673C189.689 282.32 189.802 282.054 190.027 281.873C190.253 281.684 190.542 281.544 190.894 281.454V281.399C190.479 281.201 190.154 280.916 189.919 280.546C189.693 280.176 189.58 279.747 189.58 279.259C189.58 278.907 189.644 278.582 189.77 278.284C189.896 277.986 190.073 277.733 190.298 277.525C190.533 277.309 190.808 277.142 191.125 277.024C191.45 276.907 191.811 276.848 192.208 276.848C192.705 276.848 193.147 276.938 193.536 277.119V276.997C193.536 276.726 193.599 276.505 193.725 276.333C193.852 276.153 194.059 276.063 194.348 276.063H195.391V277.011H194.064V277.458C194.317 277.674 194.511 277.936 194.646 278.243C194.791 278.541 194.863 278.88 194.863 279.259C194.863 279.611 194.8 279.936 194.673 280.234C194.547 280.532 194.366 280.79 194.132 281.007C193.906 281.214 193.63 281.377 193.305 281.494C192.98 281.612 192.619 281.67 192.222 281.67C191.996 281.67 191.77 281.648 191.544 281.603C191.31 281.666 191.097 281.761 190.908 281.887C190.718 282.004 190.623 282.171 190.623 282.388C190.623 282.596 190.723 282.736 190.921 282.808C191.12 282.88 191.377 282.916 191.693 282.916H193.183C194.05 282.916 194.678 283.083 195.066 283.418C195.464 283.743 195.662 284.194 195.662 284.772ZM194.646 284.853C194.646 284.573 194.538 284.348 194.321 284.176C194.114 284.014 193.739 283.932 193.197 283.932H190.867C190.434 284.131 190.217 284.447 190.217 284.88C190.217 285.187 190.33 285.449 190.556 285.666C190.79 285.883 191.183 285.991 191.734 285.991H192.736C193.341 285.991 193.811 285.896 194.145 285.707C194.479 285.517 194.646 285.233 194.646 284.853ZM192.222 280.803C192.682 280.803 193.048 280.695 193.319 280.478C193.59 280.253 193.725 279.909 193.725 279.449V279.07C193.725 278.609 193.59 278.27 193.319 278.054C193.048 277.828 192.682 277.715 192.222 277.715C191.761 277.715 191.395 277.828 191.125 278.054C190.854 278.27 190.718 278.609 190.718 279.07V279.449C190.718 279.909 190.854 280.253 191.125 280.478C191.395 280.695 191.761 280.803 192.222 280.803ZM199.926 284.163C199.448 284.163 199.014 284.077 198.626 283.905C198.247 283.734 197.917 283.49 197.637 283.174C197.366 282.849 197.154 282.465 197 282.022C196.856 281.571 196.784 281.065 196.784 280.505C196.784 279.955 196.856 279.453 197 279.002C197.154 278.55 197.366 278.167 197.637 277.85C197.917 277.525 198.247 277.277 198.626 277.106C199.014 276.934 199.448 276.848 199.926 276.848C200.396 276.848 200.816 276.934 201.186 277.106C201.556 277.277 201.872 277.516 202.134 277.823C202.396 278.121 202.595 278.478 202.73 278.893C202.874 279.309 202.947 279.765 202.947 280.262V280.776H197.921V281.101C197.921 281.399 197.967 281.679 198.057 281.941C198.156 282.194 198.292 282.415 198.463 282.605C198.644 282.794 198.861 282.943 199.113 283.052C199.375 283.16 199.669 283.214 199.994 283.214C200.436 283.214 200.82 283.111 201.145 282.903C201.479 282.695 201.737 282.397 201.917 282.009L202.689 282.564C202.464 283.043 202.111 283.431 201.633 283.729C201.154 284.018 200.585 284.163 199.926 284.163ZM199.926 277.756C199.628 277.756 199.357 277.81 199.113 277.918C198.87 278.018 198.657 278.162 198.477 278.352C198.305 278.541 198.17 278.767 198.07 279.029C197.971 279.282 197.921 279.562 197.921 279.869V279.964H201.782V279.815C201.782 279.191 201.61 278.695 201.267 278.325C200.933 277.945 200.486 277.756 199.926 277.756ZM200.617 273.638L202.12 275.575L201.524 275.995L199.94 274.41L198.355 275.995L197.759 275.575L199.262 273.638H200.617ZM205.184 284V277.011H206.267V278.148H206.322C206.493 277.751 206.732 277.435 207.04 277.2C207.356 276.966 207.775 276.848 208.299 276.848C209.022 276.848 209.591 277.083 210.006 277.552C210.43 278.013 210.643 278.668 210.643 279.517V284H209.559V279.706C209.559 278.451 209.031 277.823 207.974 277.823C207.757 277.823 207.545 277.85 207.338 277.905C207.139 277.959 206.958 278.04 206.796 278.148C206.633 278.257 206.502 278.397 206.403 278.568C206.313 278.731 206.267 278.925 206.267 279.151V284H205.184ZM215.935 284.163C215.447 284.163 215.009 284.077 214.621 283.905C214.232 283.734 213.903 283.49 213.632 283.174C213.37 282.858 213.167 282.474 213.022 282.022C212.887 281.571 212.819 281.065 212.819 280.505C212.819 279.945 212.887 279.44 213.022 278.988C213.167 278.537 213.37 278.153 213.632 277.837C213.903 277.521 214.232 277.277 214.621 277.106C215.009 276.934 215.447 276.848 215.935 276.848C216.63 276.848 217.185 277.002 217.601 277.309C218.025 277.607 218.341 277.999 218.549 278.487L217.641 278.948C217.515 278.586 217.307 278.307 217.018 278.108C216.729 277.909 216.368 277.81 215.935 277.81C215.609 277.81 215.325 277.864 215.081 277.972C214.837 278.072 214.634 278.216 214.472 278.406C214.309 278.586 214.187 278.808 214.106 279.07C214.025 279.322 213.984 279.602 213.984 279.909V281.101C213.984 281.715 214.147 282.221 214.472 282.618C214.806 283.007 215.293 283.201 215.935 283.201C216.81 283.201 217.443 282.794 217.831 281.982L218.616 282.51C218.391 283.016 218.052 283.418 217.601 283.716C217.158 284.014 216.603 284.163 215.935 284.163ZM221.139 275.372C220.905 275.372 220.733 275.318 220.625 275.209C220.525 275.092 220.476 274.943 220.476 274.762V274.586C220.476 274.405 220.525 274.261 220.625 274.153C220.733 274.035 220.905 273.977 221.139 273.977C221.374 273.977 221.541 274.035 221.641 274.153C221.749 274.261 221.803 274.405 221.803 274.586V274.762C221.803 274.943 221.749 275.092 221.641 275.209C221.541 275.318 221.374 275.372 221.139 275.372ZM220.598 277.011H221.681V284H220.598V277.011ZM229.515 284C229.109 284 228.815 283.892 228.634 283.675C228.463 283.458 228.355 283.187 228.309 282.862H228.242C228.088 283.296 227.835 283.621 227.483 283.837C227.131 284.054 226.711 284.163 226.223 284.163C225.483 284.163 224.905 283.973 224.49 283.594C224.083 283.214 223.88 282.7 223.88 282.049C223.88 281.39 224.119 280.885 224.598 280.532C225.086 280.18 225.84 280.004 226.86 280.004H228.242V279.313C228.242 278.817 228.106 278.437 227.835 278.176C227.564 277.914 227.149 277.783 226.589 277.783C226.165 277.783 225.808 277.878 225.519 278.067C225.239 278.257 225.004 278.51 224.815 278.826L224.165 278.216C224.354 277.837 224.657 277.516 225.072 277.255C225.487 276.984 226.011 276.848 226.643 276.848C227.492 276.848 228.151 277.056 228.621 277.471C229.09 277.887 229.325 278.465 229.325 279.205V283.052H230.124V284H229.515ZM226.399 283.241C226.67 283.241 226.919 283.21 227.144 283.147C227.37 283.083 227.564 282.993 227.727 282.876C227.889 282.758 228.016 282.623 228.106 282.469C228.196 282.316 228.242 282.149 228.242 281.968V280.817H226.806C226.183 280.817 225.727 280.907 225.438 281.088C225.158 281.268 225.018 281.53 225.018 281.873V282.158C225.018 282.501 225.14 282.767 225.384 282.957C225.636 283.147 225.975 283.241 226.399 283.241Z" fill="#263238"/>
<path d="M56.4134 284L53.2709 274.545H54.49L56.0477 279.313L57.0906 282.862H57.1584L58.2284 279.313L59.7997 274.545H60.9781L57.795 284H56.4134ZM67.5263 284C67.12 284 66.8265 283.892 66.6459 283.675C66.4743 283.458 66.366 283.187 66.3208 282.862H66.2531C66.0996 283.296 65.8467 283.621 65.4945 283.837C65.1424 284.054 64.7225 284.163 64.2348 284.163C63.4944 284.163 62.9164 283.973 62.5011 283.594C62.0947 283.214 61.8915 282.7 61.8915 282.049C61.8915 281.39 62.1308 280.885 62.6094 280.532C63.097 280.18 63.8511 280.004 64.8715 280.004H66.2531V279.313C66.2531 278.817 66.1176 278.437 65.8467 278.176C65.5758 277.914 65.1604 277.783 64.6006 277.783C64.1761 277.783 63.8195 277.878 63.5305 278.067C63.2506 278.257 63.0158 278.51 62.8261 278.826L62.176 278.216C62.3656 277.837 62.6681 277.516 63.0835 277.255C63.4989 276.984 64.0226 276.848 64.6547 276.848C65.5036 276.848 66.1628 277.056 66.6323 277.471C67.1019 277.887 67.3367 278.465 67.3367 279.205V283.052H68.1359V284H67.5263ZM64.4109 283.241C64.6818 283.241 64.9302 283.21 65.1559 283.147C65.3817 283.083 65.5758 282.993 65.7384 282.876C65.9009 282.758 66.0273 282.623 66.1176 282.469C66.2079 282.316 66.2531 282.149 66.2531 281.968V280.817H64.8173C64.1942 280.817 63.7382 280.907 63.4492 281.088C63.1693 281.268 63.0293 281.53 63.0293 281.873V282.158C63.0293 282.501 63.1512 282.767 63.395 282.957C63.6479 283.147 63.9865 283.241 64.4109 283.241ZM70.1339 284V277.011H71.2176V278.297H71.2853C71.4117 277.963 71.6375 277.665 71.9625 277.403C72.2876 277.142 72.7346 277.011 73.3035 277.011H73.7234V278.094H73.0868C72.4998 278.094 72.0393 278.207 71.7052 278.433C71.3801 278.65 71.2176 278.925 71.2176 279.259V284H70.1339ZM76.1009 275.372C75.8661 275.372 75.6945 275.318 75.5862 275.209C75.4868 275.092 75.4372 274.943 75.4372 274.762V274.586C75.4372 274.405 75.4868 274.261 75.5862 274.153C75.6945 274.035 75.8661 273.977 76.1009 273.977C76.3357 273.977 76.5027 274.035 76.6021 274.153C76.7104 274.261 76.7646 274.405 76.7646 274.586V274.762C76.7646 274.943 76.7104 275.092 76.6021 275.209C76.5027 275.318 76.3357 275.372 76.1009 275.372ZM75.5591 277.011H76.6427V284H75.5591V277.011ZM84.4763 284C84.07 284 83.7765 283.892 83.5959 283.675C83.4243 283.458 83.3159 283.187 83.2708 282.862H83.2031C83.0496 283.296 82.7967 283.621 82.4445 283.837C82.0924 284.054 81.6725 284.163 81.1848 284.163C80.4444 284.163 79.8664 283.973 79.4511 283.594C79.0447 283.214 78.8415 282.7 78.8415 282.049C78.8415 281.39 79.0808 280.885 79.5594 280.532C80.047 280.18 80.8011 280.004 81.8215 280.004H83.2031V279.313C83.2031 278.817 83.0676 278.437 82.7967 278.176C82.5258 277.914 82.1104 277.783 81.5506 277.783C81.1261 277.783 80.7695 277.878 80.4805 278.067C80.2006 278.257 79.9658 278.51 79.7761 278.826L79.126 278.216C79.3156 277.837 79.6181 277.516 80.0335 277.255C80.4489 276.984 80.9726 276.848 81.6047 276.848C82.4536 276.848 83.1128 277.056 83.5823 277.471C84.0519 277.887 84.2867 278.465 84.2867 279.205V283.052H85.0858V284H84.4763ZM81.3609 283.241C81.6318 283.241 81.8802 283.21 82.1059 283.147C82.3317 283.083 82.5258 282.993 82.6884 282.876C82.8509 282.758 82.9773 282.623 83.0676 282.469C83.1579 282.316 83.2031 282.149 83.2031 281.968V280.817H81.7673C81.1442 280.817 80.6882 280.907 80.3992 281.088C80.1193 281.268 79.9793 281.53 79.9793 281.873V282.158C79.9793 282.501 80.1012 282.767 80.345 282.957C80.5979 283.147 80.9365 283.241 81.3609 283.241ZM81.7673 276.076L81.0629 275.751L82.2143 273.448L83.2031 273.922L81.7673 276.076ZM88.5223 284L86.0706 277.011H87.1542L88.3733 280.478L89.1318 282.862H89.1995L89.9581 280.478L91.2042 277.011H92.2472L89.782 284H88.5223ZM96.6183 284.163C96.1397 284.163 95.7063 284.077 95.318 283.905C94.9387 283.734 94.6091 283.49 94.3292 283.174C94.0583 282.849 93.8461 282.465 93.6926 282.022C93.5481 281.571 93.4759 281.065 93.4759 280.505C93.4759 279.955 93.5481 279.453 93.6926 279.002C93.8461 278.55 94.0583 278.167 94.3292 277.85C94.6091 277.525 94.9387 277.277 95.318 277.106C95.7063 276.934 96.1397 276.848 96.6183 276.848C97.0879 276.848 97.5078 276.934 97.878 277.106C98.2483 277.277 98.5643 277.516 98.8262 277.823C99.0881 278.121 99.2867 278.478 99.4222 278.893C99.5667 279.309 99.6389 279.765 99.6389 280.262V280.776H94.6136V281.101C94.6136 281.399 94.6588 281.679 94.7491 281.941C94.8484 282.194 94.9839 282.415 95.1555 282.605C95.3361 282.794 95.5528 282.943 95.8056 283.052C96.0675 283.16 96.361 283.214 96.6861 283.214C97.1285 283.214 97.5123 283.111 97.8374 282.903C98.1715 282.695 98.4289 282.397 98.6095 282.009L99.3816 282.564C99.1558 283.043 98.8036 283.431 98.325 283.729C97.8464 284.018 97.2775 284.163 96.6183 284.163ZM96.6183 277.756C96.3203 277.756 96.0494 277.81 95.8056 277.918C95.5618 278.018 95.3496 278.162 95.169 278.352C94.9974 278.541 94.862 278.767 94.7626 279.029C94.6633 279.282 94.6136 279.562 94.6136 279.869V279.964H98.474V279.815C98.474 279.191 98.3025 278.695 97.9593 278.325C97.6252 277.945 97.1782 277.756 96.6183 277.756ZM102.418 275.372C102.183 275.372 102.012 275.318 101.903 275.209C101.804 275.092 101.754 274.943 101.754 274.762V274.586C101.754 274.405 101.804 274.261 101.903 274.153C102.012 274.035 102.183 273.977 102.418 273.977C102.653 273.977 102.82 274.035 102.919 274.153C103.027 274.261 103.082 274.405 103.082 274.586V274.762C103.082 274.943 103.027 275.092 102.919 275.209C102.82 275.318 102.653 275.372 102.418 275.372ZM101.876 277.011H102.96V284H101.876V277.011ZM107.813 284.163C107.163 284.163 106.617 284.041 106.174 283.797C105.741 283.544 105.366 283.21 105.05 282.794L105.822 282.171C106.093 282.515 106.396 282.781 106.73 282.971C107.064 283.151 107.452 283.241 107.895 283.241C108.355 283.241 108.712 283.142 108.965 282.943C109.227 282.745 109.358 282.465 109.358 282.104C109.358 281.833 109.267 281.603 109.087 281.413C108.915 281.214 108.599 281.079 108.138 281.007L107.583 280.925C107.258 280.88 106.96 280.812 106.689 280.722C106.418 280.623 106.179 280.496 105.971 280.343C105.773 280.18 105.615 279.982 105.497 279.747C105.389 279.512 105.335 279.232 105.335 278.907C105.335 278.564 105.398 278.266 105.524 278.013C105.651 277.751 105.822 277.534 106.039 277.363C106.265 277.191 106.531 277.065 106.838 276.984C107.145 276.893 107.475 276.848 107.827 276.848C108.396 276.848 108.87 276.947 109.249 277.146C109.637 277.345 109.976 277.62 110.265 277.972L109.547 278.623C109.394 278.406 109.168 278.212 108.87 278.04C108.572 277.86 108.197 277.769 107.746 277.769C107.294 277.769 106.951 277.869 106.716 278.067C106.49 278.257 106.378 278.519 106.378 278.853C106.378 279.196 106.49 279.444 106.716 279.598C106.951 279.751 107.285 279.864 107.719 279.936L108.26 280.018C109.037 280.135 109.588 280.361 109.913 280.695C110.238 281.02 110.4 281.449 110.4 281.982C110.4 282.659 110.17 283.192 109.71 283.58C109.249 283.968 108.617 284.163 107.813 284.163Z" fill="#263238"/>
<rect x="126" width="233" height="233" rx="116.5" fill="#855CF8"/>
<g style="mix-blend-mode:overlay">
<path d="M242.263 116.263H358.525C358.525 148.278 345.282 177.263 324.243 198.243L242.263 116.263Z" fill="#ACB9FF"/>
</g>
<g opacity="0.4">
<path d="M242.263 116.263H358.525C358.525 84.2476 345.282 55.2633 324.243 34.2827L242.263 116.263Z" fill="black"/>
</g>
<path d="M242.263 116.263V-9.91821e-05C274.278 -9.91821e-05 303.263 13.2431 324.243 34.2825L242.263 116.263Z" fill="#E289F2"/>
</svg>
