<svg width="500" height="67" viewBox="0 0 500 67" fill="none" xmlns="http://www.w3.org/2000/svg">
<path d="M0 25L4.40625 29.4062L21.875 11.9688V50H28.125V11.9688L45.5625 29.4375L50 25L25 0L0 25Z" fill="#0C9C23"/>
<path d="M79.7998 36.1924H76.2988V44H71.9043V22.6719H79.8291C82.3486 22.6719 84.292 23.2334 85.6592 24.3564C87.0264 25.4795 87.71 27.0664 87.71 29.1172C87.71 30.5723 87.3926 31.7881 86.7578 32.7646C86.1328 33.7314 85.1807 34.5029 83.9014 35.0791L88.5156 43.7949V44H83.7988L79.7998 36.1924ZM76.2988 32.6328H79.8438C80.9473 32.6328 81.8018 32.3545 82.4072 31.7979C83.0127 31.2314 83.3154 30.4551 83.3154 29.4688C83.3154 28.4629 83.0273 27.6719 82.4512 27.0957C81.8848 26.5195 81.0107 26.2314 79.8291 26.2314H76.2988V32.6328ZM100.732 38.3896C100.732 37.5889 100.508 36.9541 100.059 36.4854C99.6191 36.0068 98.8672 35.5674 97.8027 35.167C96.7383 34.7666 95.8203 34.3711 95.0488 33.9805C94.2773 33.5801 93.6133 33.126 93.0566 32.6182C92.5098 32.1006 92.0801 31.4951 91.7676 30.8018C91.4648 30.1084 91.3135 29.2832 91.3135 28.3262C91.3135 26.6758 91.8408 25.3232 92.8955 24.2686C93.9502 23.2139 95.3516 22.5986 97.0996 22.4229V19.2881H99.4434V22.4668C101.172 22.7109 102.524 23.4336 103.501 24.6348C104.478 25.8262 104.966 27.374 104.966 29.2783H100.732C100.732 28.1064 100.488 27.2324 100 26.6562C99.5215 26.0703 98.877 25.7773 98.0664 25.7773C97.2656 25.7773 96.6455 26.0068 96.2061 26.4658C95.7666 26.915 95.5469 27.54 95.5469 28.3408C95.5469 29.083 95.7617 29.6787 96.1914 30.1279C96.6211 30.5771 97.417 31.0361 98.5791 31.5049C99.751 31.9736 100.713 32.418 101.465 32.8379C102.217 33.248 102.852 33.7168 103.369 34.2441C103.887 34.7617 104.282 35.3574 104.556 36.0312C104.829 36.6953 104.966 37.4717 104.966 38.3604C104.966 40.0205 104.448 41.3682 103.413 42.4033C102.378 43.4385 100.952 44.0488 99.1357 44.2344V47.1494H96.8066V44.249C94.8047 44.0342 93.252 43.3262 92.1484 42.125C91.0547 40.9141 90.5078 39.3076 90.5078 37.3057H94.7412C94.7412 38.4678 95.0146 39.3613 95.5615 39.9863C96.1182 40.6016 96.9141 40.9092 97.9492 40.9092C98.8086 40.9092 99.4873 40.6846 99.9854 40.2354C100.483 39.7764 100.732 39.1611 100.732 38.3896ZM129.927 44H115.308V41.0996L122.207 33.7461C123.154 32.7109 123.853 31.8076 124.302 31.0361C124.761 30.2646 124.99 29.5322 124.99 28.8389C124.99 27.8916 124.751 27.1494 124.272 26.6123C123.794 26.0654 123.11 25.792 122.222 25.792C121.265 25.792 120.508 26.124 119.951 26.7881C119.404 27.4424 119.131 28.3066 119.131 29.3809H114.883C114.883 28.082 115.19 26.8955 115.806 25.8213C116.431 24.7471 117.31 23.9072 118.442 23.3018C119.575 22.6865 120.859 22.3789 122.295 22.3789C124.492 22.3789 126.196 22.9062 127.407 23.9609C128.628 25.0156 129.238 26.5049 129.238 28.4287C129.238 29.4834 128.965 30.5576 128.418 31.6514C127.871 32.7451 126.934 34.0195 125.605 35.4746L120.757 40.5869H129.927V44ZM133.164 33.5117L134.395 22.6719H146.348V26.2021H137.866L137.339 30.7871C138.345 30.25 139.414 29.9814 140.547 29.9814C142.578 29.9814 144.17 30.6113 145.322 31.8711C146.475 33.1309 147.051 34.8936 147.051 37.1592C147.051 38.5361 146.758 39.7715 146.172 40.8652C145.596 41.9492 144.766 42.7939 143.682 43.3994C142.598 43.9951 141.318 44.293 139.844 44.293C138.555 44.293 137.358 44.0342 136.255 43.5166C135.151 42.9893 134.277 42.252 133.633 41.3047C132.998 40.3574 132.661 39.2783 132.622 38.0674H136.812C136.899 38.9561 137.207 39.6494 137.734 40.1475C138.271 40.6357 138.97 40.8799 139.829 40.8799C140.786 40.8799 141.523 40.5381 142.041 39.8545C142.559 39.1611 142.817 38.1846 142.817 36.9248C142.817 35.7139 142.52 34.7861 141.924 34.1416C141.328 33.4971 140.483 33.1748 139.39 33.1748C138.384 33.1748 137.568 33.4385 136.943 33.9658L136.533 34.3467L133.164 33.5117ZM162.285 35.9727H164.702V39.3857H162.285V44H158.052V39.3857H149.307L149.116 36.7197L158.008 22.6719H162.285V35.9727ZM153.335 35.9727H158.052V28.4434L157.773 28.9268L153.335 35.9727ZM171.294 31.4609H173.55C174.624 31.4609 175.42 31.1924 175.938 30.6553C176.455 30.1182 176.714 29.4053 176.714 28.5166C176.714 27.6572 176.455 26.9883 175.938 26.5098C175.43 26.0312 174.727 25.792 173.828 25.792C173.018 25.792 172.339 26.0166 171.792 26.4658C171.245 26.9053 170.972 27.4814 170.972 28.1943H166.738C166.738 27.0811 167.036 26.085 167.632 25.2061C168.237 24.3174 169.077 23.624 170.151 23.126C171.235 22.6279 172.427 22.3789 173.726 22.3789C175.981 22.3789 177.749 22.9209 179.028 24.0049C180.308 25.0791 180.947 26.5635 180.947 28.458C180.947 29.4346 180.649 30.333 180.054 31.1533C179.458 31.9736 178.677 32.6035 177.71 33.043C178.911 33.4727 179.805 34.1172 180.391 34.9766C180.986 35.8359 181.284 36.8516 181.284 38.0234C181.284 39.918 180.591 41.4365 179.204 42.5791C177.827 43.7217 176.001 44.293 173.726 44.293C171.597 44.293 169.854 43.7314 168.496 42.6084C167.148 41.4854 166.475 40.001 166.475 38.1553H170.708C170.708 38.9561 171.006 39.6104 171.602 40.1182C172.207 40.626 172.949 40.8799 173.828 40.8799C174.834 40.8799 175.62 40.6162 176.187 40.0889C176.763 39.5518 177.051 38.8438 177.051 37.9648C177.051 35.8359 175.879 34.7715 173.535 34.7715H171.294V31.4609ZM185.488 49.3467L183.276 48.1895L183.804 47.2373C184.458 46.0459 184.795 44.8594 184.814 43.6777V40.3965H188.389L188.374 43.3262C188.364 44.4102 188.091 45.5039 187.554 46.6074C187.017 47.7109 186.328 48.624 185.488 49.3467ZM203.022 22.4521V25.9385H202.612C200.698 25.9678 199.155 26.4658 197.983 27.4326C196.821 28.3994 196.123 29.7422 195.889 31.4609C197.021 30.3086 198.452 29.7324 200.181 29.7324C202.036 29.7324 203.511 30.3965 204.604 31.7246C205.698 33.0527 206.245 34.8008 206.245 36.9688C206.245 38.3555 205.942 39.6104 205.337 40.7334C204.741 41.8564 203.892 42.7305 202.788 43.3555C201.694 43.9805 200.454 44.293 199.067 44.293C196.821 44.293 195.005 43.5117 193.618 41.9492C192.241 40.3867 191.553 38.3018 191.553 35.6943V34.1709C191.553 31.8564 191.987 29.8154 192.856 28.0479C193.735 26.2705 194.99 24.8984 196.621 23.9316C198.262 22.9551 200.161 22.4619 202.319 22.4521H203.022ZM198.892 33.1309C198.208 33.1309 197.588 33.3115 197.031 33.6729C196.475 34.0244 196.064 34.4932 195.801 35.0791V36.3682C195.801 37.7842 196.079 38.8926 196.636 39.6934C197.192 40.4844 197.974 40.8799 198.979 40.8799C199.888 40.8799 200.62 40.5234 201.177 39.8105C201.743 39.0879 202.026 38.1553 202.026 37.0127C202.026 35.8506 201.743 34.9131 201.177 34.2002C200.61 33.4873 199.849 33.1309 198.892 33.1309ZM223.267 25.0449L215.02 44H210.552L218.813 26.0996H208.208V22.6719H223.267V25.0449Z" fill="#8F8F8F"/>
<path d="M347.8 36.1924H344.299V44H339.904V22.6719H347.829C350.349 22.6719 352.292 23.2334 353.659 24.3564C355.026 25.4795 355.71 27.0664 355.71 29.1172C355.71 30.5723 355.393 31.7881 354.758 32.7646C354.133 33.7314 353.181 34.5029 351.901 35.0791L356.516 43.7949V44H351.799L347.8 36.1924ZM344.299 32.6328H347.844C348.947 32.6328 349.802 32.3545 350.407 31.7979C351.013 31.2314 351.315 30.4551 351.315 29.4688C351.315 28.4629 351.027 27.6719 350.451 27.0957C349.885 26.5195 349.011 26.2314 347.829 26.2314H344.299V32.6328ZM368.732 38.3896C368.732 37.5889 368.508 36.9541 368.059 36.4854C367.619 36.0068 366.867 35.5674 365.803 35.167C364.738 34.7666 363.82 34.3711 363.049 33.9805C362.277 33.5801 361.613 33.126 361.057 32.6182C360.51 32.1006 360.08 31.4951 359.768 30.8018C359.465 30.1084 359.313 29.2832 359.313 28.3262C359.313 26.6758 359.841 25.3232 360.896 24.2686C361.95 23.2139 363.352 22.5986 365.1 22.4229V19.2881H367.443V22.4668C369.172 22.7109 370.524 23.4336 371.501 24.6348C372.478 25.8262 372.966 27.374 372.966 29.2783H368.732C368.732 28.1064 368.488 27.2324 368 26.6562C367.521 26.0703 366.877 25.7773 366.066 25.7773C365.266 25.7773 364.646 26.0068 364.206 26.4658C363.767 26.915 363.547 27.54 363.547 28.3408C363.547 29.083 363.762 29.6787 364.191 30.1279C364.621 30.5771 365.417 31.0361 366.579 31.5049C367.751 31.9736 368.713 32.418 369.465 32.8379C370.217 33.248 370.852 33.7168 371.369 34.2441C371.887 34.7617 372.282 35.3574 372.556 36.0312C372.829 36.6953 372.966 37.4717 372.966 38.3604C372.966 40.0205 372.448 41.3682 371.413 42.4033C370.378 43.4385 368.952 44.0488 367.136 44.2344V47.1494H364.807V44.249C362.805 44.0342 361.252 43.3262 360.148 42.125C359.055 40.9141 358.508 39.3076 358.508 37.3057H362.741C362.741 38.4678 363.015 39.3613 363.562 39.9863C364.118 40.6016 364.914 40.9092 365.949 40.9092C366.809 40.9092 367.487 40.6846 367.985 40.2354C368.483 39.7764 368.732 39.1611 368.732 38.3896ZM383.938 33.5117L385.168 22.6719H397.121V26.2021H388.64L388.112 30.7871C389.118 30.25 390.188 29.9814 391.32 29.9814C393.352 29.9814 394.943 30.6113 396.096 31.8711C397.248 33.1309 397.824 34.8936 397.824 37.1592C397.824 38.5361 397.531 39.7715 396.945 40.8652C396.369 41.9492 395.539 42.7939 394.455 43.3994C393.371 43.9951 392.092 44.293 390.617 44.293C389.328 44.293 388.132 44.0342 387.028 43.5166C385.925 42.9893 385.051 42.252 384.406 41.3047C383.771 40.3574 383.435 39.2783 383.396 38.0674H387.585C387.673 38.9561 387.98 39.6494 388.508 40.1475C389.045 40.6357 389.743 40.8799 390.603 40.8799C391.56 40.8799 392.297 40.5381 392.814 39.8545C393.332 39.1611 393.591 38.1846 393.591 36.9248C393.591 35.7139 393.293 34.7861 392.697 34.1416C392.102 33.4971 391.257 33.1748 390.163 33.1748C389.157 33.1748 388.342 33.4385 387.717 33.9658L387.307 34.3467L383.938 33.5117ZM410.437 35.4746C409.333 36.5586 408.044 37.1006 406.569 37.1006C404.685 37.1006 403.176 36.4561 402.043 35.167C400.91 33.8682 400.344 32.1201 400.344 29.9229C400.344 28.5264 400.646 27.2471 401.252 26.085C401.867 24.9131 402.722 24.0049 403.815 23.3604C404.909 22.7061 406.14 22.3789 407.507 22.3789C408.913 22.3789 410.163 22.7305 411.257 23.4336C412.351 24.1367 413.2 25.1475 413.806 26.4658C414.411 27.7842 414.719 29.293 414.729 30.9922V32.5596C414.729 36.1143 413.845 38.9072 412.077 40.9385C410.31 42.9697 407.805 44.0537 404.562 44.1904L403.522 44.2051V40.6748L404.46 40.6602C408.142 40.4941 410.134 38.7656 410.437 35.4746ZM407.609 33.8633C408.293 33.8633 408.879 33.6875 409.367 33.3359C409.865 32.9844 410.241 32.5596 410.495 32.0615V30.3184C410.495 28.8828 410.222 27.7695 409.675 26.9785C409.128 26.1875 408.396 25.792 407.478 25.792C406.628 25.792 405.93 26.1826 405.383 26.9639C404.836 27.7354 404.562 28.707 404.562 29.8789C404.562 31.041 404.826 31.998 405.354 32.75C405.891 33.4922 406.643 33.8633 407.609 33.8633ZM422.067 31.4609H424.323C425.397 31.4609 426.193 31.1924 426.711 30.6553C427.229 30.1182 427.487 29.4053 427.487 28.5166C427.487 27.6572 427.229 26.9883 426.711 26.5098C426.203 26.0312 425.5 25.792 424.602 25.792C423.791 25.792 423.112 26.0166 422.565 26.4658C422.019 26.9053 421.745 27.4814 421.745 28.1943H417.512C417.512 27.0811 417.81 26.085 418.405 25.2061C419.011 24.3174 419.851 23.624 420.925 23.126C422.009 22.6279 423.2 22.3789 424.499 22.3789C426.755 22.3789 428.522 22.9209 429.802 24.0049C431.081 25.0791 431.721 26.5635 431.721 28.458C431.721 29.4346 431.423 30.333 430.827 31.1533C430.231 31.9736 429.45 32.6035 428.483 33.043C429.685 33.4727 430.578 34.1172 431.164 34.9766C431.76 35.8359 432.058 36.8516 432.058 38.0234C432.058 39.918 431.364 41.4365 429.978 42.5791C428.601 43.7217 426.774 44.293 424.499 44.293C422.37 44.293 420.627 43.7314 419.27 42.6084C417.922 41.4854 417.248 40.001 417.248 38.1553H421.481C421.481 38.9561 421.779 39.6104 422.375 40.1182C422.98 40.626 423.723 40.8799 424.602 40.8799C425.607 40.8799 426.394 40.6162 426.96 40.0889C427.536 39.5518 427.824 38.8438 427.824 37.9648C427.824 35.8359 426.652 34.7715 424.309 34.7715H422.067V31.4609ZM436.262 49.3467L434.05 48.1895L434.577 47.2373C435.231 46.0459 435.568 44.8594 435.588 43.6777V40.3965H439.162L439.147 43.3262C439.138 44.4102 438.864 45.5039 438.327 46.6074C437.79 47.7109 437.102 48.624 436.262 49.3467ZM442.941 33.5117L444.172 22.6719H456.125V26.2021H447.644L447.116 30.7871C448.122 30.25 449.191 29.9814 450.324 29.9814C452.355 29.9814 453.947 30.6113 455.1 31.8711C456.252 33.1309 456.828 34.8936 456.828 37.1592C456.828 38.5361 456.535 39.7715 455.949 40.8652C455.373 41.9492 454.543 42.7939 453.459 43.3994C452.375 43.9951 451.096 44.293 449.621 44.293C448.332 44.293 447.136 44.0342 446.032 43.5166C444.929 42.9893 444.055 42.252 443.41 41.3047C442.775 40.3574 442.438 39.2783 442.399 38.0674H446.589C446.677 38.9561 446.984 39.6494 447.512 40.1475C448.049 40.6357 448.747 40.8799 449.606 40.8799C450.563 40.8799 451.301 40.5381 451.818 39.8545C452.336 39.1611 452.595 38.1846 452.595 36.9248C452.595 35.7139 452.297 34.7861 451.701 34.1416C451.105 33.4971 450.261 33.1748 449.167 33.1748C448.161 33.1748 447.346 33.4385 446.721 33.9658L446.311 34.3467L442.941 33.5117ZM472.062 35.9727H474.479V39.3857H472.062V44H467.829V39.3857H459.084L458.894 36.7197L467.785 22.6719H472.062V35.9727ZM463.112 35.9727H467.829V28.4434L467.551 28.9268L463.112 35.9727Z" fill="#8F8F8F"/>
<path d="M331 25L326.594 20.5938L309.125 38.0312V0H302.875V38.0312L285.437 20.5625L281 25L306 50L331 25Z" fill="#FF0000"/>
</svg>
