<svg width="565" height="234" viewBox="0 0 565 234" fill="none" xmlns="http://www.w3.org/2000/svg">
<g clip-path="url(#clip0)">
<path d="M28.9499 130.378H25.1323V132.424H28.9499V130.378Z" fill="#E6E6E6"/>
<path d="M390.047 132.424H382.524V130.378H390.047V132.424ZM375.001 132.424H367.478V130.378H375.001V132.424ZM359.956 132.424H352.433V130.378H359.956V132.424ZM344.91 132.424H337.387V130.378H344.91V132.424ZM329.864 132.424H322.342V130.378H329.864V132.424ZM314.818 132.424H307.296V130.378H314.818L314.818 132.424ZM299.773 132.424H292.25V130.378H299.773V132.424ZM284.727 132.424H277.204V130.378H284.727V132.424ZM269.681 132.424H262.159V130.378H269.681V132.424ZM254.636 132.424H247.113V130.378H254.636L254.636 132.424ZM239.59 132.424H232.067V130.378H239.59L239.59 132.424ZM224.544 132.424H217.021V130.378H224.544L224.544 132.424ZM209.499 132.424H201.976V130.378H209.499L209.499 132.424ZM194.453 132.424H186.93V130.378H194.453L194.453 132.424ZM179.407 132.424H171.884V130.378H179.407L179.407 132.424ZM164.361 132.424H156.838V130.378H164.361L164.361 132.424ZM149.316 132.424H141.793V130.378H149.316L149.316 132.424ZM134.27 132.424H126.747V130.378H134.27L134.27 132.424ZM119.224 132.424H111.701V130.378H119.224L119.224 132.424ZM104.178 132.424H96.6558V130.378H104.178L104.178 132.424ZM89.1326 132.424H81.6102V130.378H89.1328L89.1326 132.424ZM74.087 132.424H66.5642V130.378H74.0872L74.087 132.424ZM59.0413 132.424H51.5186V130.378H59.0415L59.0413 132.424ZM43.9956 132.424H36.4729V130.378H43.9959L43.9956 132.424Z" fill="#E6E6E6"/>
<path d="M28.9499 78.4243H25.1323V80.4697H28.9499V78.4243Z" fill="#E6E6E6"/>
<path d="M390.047 80.4697H382.524V78.4243H390.047V80.4697ZM375.001 80.4697H367.478V78.4243H375.001V80.4697ZM359.956 80.4697H352.433V78.4243H359.956V80.4697ZM344.91 80.4697H337.387V78.4243H344.91V80.4697ZM329.864 80.4697H322.342V78.4243H329.864V80.4697ZM314.818 80.4697H307.296V78.4243H314.818L314.818 80.4697ZM299.773 80.4697H292.25V78.4243H299.773V80.4697ZM284.727 80.4697H277.204V78.4243H284.727V80.4697ZM269.681 80.4697H262.159V78.4243H269.681V80.4697ZM254.636 80.4697H247.113V78.4243H254.636L254.636 80.4697ZM239.59 80.4697H232.067V78.4243H239.59L239.59 80.4697ZM224.544 80.4697H217.021V78.4243H224.544L224.544 80.4697ZM209.499 80.4697H201.976V78.4243H209.499L209.499 80.4697ZM194.453 80.4697H186.93V78.4243H194.453L194.453 80.4697ZM179.407 80.4697H171.884V78.4243H179.407L179.407 80.4697ZM164.361 80.4697H156.838V78.4243H164.361L164.361 80.4697ZM149.316 80.4697H141.793V78.4243H149.316L149.316 80.4697ZM134.27 80.4697H126.747V78.4243H134.27L134.27 80.4697ZM119.224 80.4697H111.701V78.4243H119.224L119.224 80.4697ZM104.178 80.4697H96.6558V78.4243H104.178L104.178 80.4697ZM89.1326 80.4697H81.6102V78.4243H89.1328L89.1326 80.4697ZM74.087 80.4697H66.5642V78.4243H74.0872L74.087 80.4697ZM59.0413 80.4697H51.5186V78.4243H59.0415L59.0413 80.4697ZM43.9956 80.4697H36.4729V78.4243H43.9959L43.9956 80.4697Z" fill="#E6E6E6"/>
<path d="M28.9499 26.4712H25.1323V28.5166H28.9499V26.4712Z" fill="#E6E6E6"/>
<path d="M390.047 28.5166H382.524V26.4712H390.047V28.5166ZM375.001 28.5166H367.478V26.4712H375.001V28.5166ZM359.956 28.5166H352.433V26.4712H359.956V28.5166ZM344.91 28.5166H337.387V26.4712H344.91V28.5166ZM329.864 28.5166H322.342V26.4712H329.864V28.5166ZM314.818 28.5166H307.296V26.4712H314.818L314.818 28.5166ZM299.773 28.5166H292.25V26.4712H299.773V28.5166ZM284.727 28.5166H277.204V26.4712H284.727V28.5166ZM269.681 28.5166H262.159V26.4712H269.681V28.5166ZM254.636 28.5166H247.113V26.4712H254.636L254.636 28.5166ZM239.59 28.5166H232.067V26.4712H239.59L239.59 28.5166ZM224.544 28.5166H217.021V26.4712H224.544L224.544 28.5166ZM209.499 28.5166H201.976V26.4712H209.499L209.499 28.5166ZM194.453 28.5166H186.93V26.4712H194.453L194.453 28.5166ZM179.407 28.5166H171.884V26.4712H179.407L179.407 28.5166ZM164.361 28.5166H156.838V26.4712H164.361L164.361 28.5166ZM149.316 28.5166H141.793V26.4712H149.316L149.316 28.5166ZM134.27 28.5166H126.747V26.4712H134.27L134.27 28.5166ZM119.224 28.5166H111.701V26.4712H119.224L119.224 28.5166ZM104.178 28.5166H96.6558V26.4712H104.178L104.178 28.5166ZM89.1326 28.5166H81.6102V26.4712H89.1328L89.1326 28.5166ZM74.087 28.5166H66.5642V26.4712H74.0872L74.087 28.5166ZM59.0413 28.5166H51.5186V26.4712H59.0415L59.0413 28.5166ZM43.9956 28.5166H36.4729V26.4712H43.9959L43.9956 28.5166Z" fill="#E6E6E6"/>
<path d="M149.521 130.992H118.344V204.627H149.521V130.992Z" fill="#3F3D56"/>
<path d="M155.248 130.992H124.071V204.627H155.248V130.992Z" fill="#6C63FF"/>
<path d="M223.328 79.0381H192.151V204.627H223.328V79.0381Z" fill="#3F3D56"/>
<path d="M229.054 79.0381H197.877V204.627H229.054V79.0381Z" fill="#6C63FF"/>
<path d="M297.134 27.0845H265.957V204.626H297.134V27.0845Z" fill="#3F3D56"/>
<path d="M302.86 27.0845H271.684V204.626H302.86V27.0845Z" fill="#6C63FF"/>
<path d="M25.4506 32.4027C29.6673 32.4027 33.0857 30.2049 33.0857 27.4937C33.0857 24.7825 29.6673 22.5847 25.4506 22.5847C21.2338 22.5847 17.8154 24.7825 17.8154 27.4937C17.8154 30.2049 21.2338 32.4027 25.4506 32.4027Z" fill="#E6E6E6"/>
<path d="M25.4506 84.3566C29.6673 84.3566 33.0857 82.1587 33.0857 79.4476C33.0857 76.7364 29.6673 74.5386 25.4506 74.5386C21.2338 74.5386 17.8154 76.7364 17.8154 79.4476C17.8154 82.1587 21.2338 84.3566 25.4506 84.3566Z" fill="#E6E6E6"/>
<path d="M25.4506 136.31C29.6673 136.31 33.0857 134.112 33.0857 131.401C33.0857 128.69 29.6673 126.492 25.4506 126.492C21.2338 126.492 17.8154 128.69 17.8154 131.401C17.8154 134.112 21.2338 136.31 25.4506 136.31Z" fill="#E6E6E6"/>
<path d="M481.232 38.3854C493.193 38.3854 502.889 32.1514 502.889 24.4614C502.889 16.7714 493.193 10.5374 481.232 10.5374C469.272 10.5374 459.576 16.7714 459.576 24.4614C459.576 32.1514 469.272 38.3854 481.232 38.3854Z" fill="#2F2E41"/>
<path d="M428.847 116.096L427.676 120.612C427.676 120.612 421.238 136.041 429.432 135.289C437.627 134.536 434.7 121.365 434.7 121.365L435.871 117.225L428.847 116.096Z" fill="#FFB9B9"/>
<path d="M501.133 94.834H453.723C453.723 94.834 440.261 108.382 445.528 132.09C450.796 155.799 448.455 208.861 448.455 208.861H466.6L478.891 125.693L504.645 208.861L521.619 207.732L512.254 111.769L501.133 94.834Z" fill="#2F2E41"/>
<path d="M453.43 207.543L452.845 221.467C452.845 221.467 445.236 235.391 456.357 233.886C467.478 232.38 468.648 229.37 468.648 228.241C468.648 227.112 465.722 207.543 465.722 207.543H453.43Z" fill="#2F2E41"/>
<path d="M518.645 206.485L521.996 221.376C521.996 221.376 532.313 234.56 520.983 233.981C509.654 233.403 507.894 230.514 507.67 229.394C507.445 228.274 506.454 207.496 506.454 207.496L518.645 206.485Z" fill="#2F2E41"/>
<path d="M481.525 38.1975C490.253 38.1975 497.329 33.6484 497.329 28.0368C497.329 22.4251 490.253 17.876 481.525 17.876C472.797 17.876 465.722 22.4251 465.722 28.0368C465.722 33.6484 472.797 38.1975 481.525 38.1975Z" fill="#FFB9B9"/>
<path d="M493.524 32.3647L499.963 46.665L487.085 54.9441L480.062 47.0414L477.721 35.7515L493.524 32.3647Z" fill="#FFB9B9"/>
<path d="M499.085 41.9602C499.085 41.9602 498.223 38.1645 496.312 38.557C494.402 38.9496 477.428 41.5839 477.428 42.7128V47.6051L463.381 82.6033L459.869 96.9037L496.743 96.5274L502.596 46.8524L499.085 41.9602Z" fill="#E6E6E6"/>
<path d="M495.865 38.0083L499.962 38.7609L506.693 43.0887C506.693 43.0887 523.082 41.2071 525.423 46.0993C527.765 50.9915 512.547 111.956 512.547 111.956C512.547 111.956 486.793 117.601 482.696 103.301C478.598 89.0004 478.891 76.7698 487.086 67.738C495.28 58.7062 495.865 38.0083 495.865 38.0083Z" fill="#2F2E41"/>
<path d="M478.885 41.3667L476.55 42.1481L474.501 47.9811C474.501 47.9811 457.527 50.9917 456.357 55.1313C455.186 59.2709 456.942 81.8504 456.942 81.8504C456.942 81.8504 440.553 103.301 443.48 112.333C443.48 112.333 450.504 116.096 455.771 111.204C461.039 106.312 473.916 76.9581 474.501 75.0765C475.087 73.1949 481.513 41.9025 478.885 41.3667Z" fill="#2F2E41"/>
<path d="M462.795 53.6265L456.528 54.7191L452.26 62.6582L443.48 82.9798L426.506 116.473L438.212 119.86L456.942 95.3987L462.795 53.6265Z" fill="#2F2E41"/>
<path d="M493.524 26.7192C483.461 24.3856 480.056 22.952 468.941 26.7192L464.844 16.1821H497.621L493.524 26.7192Z" fill="#2F2E41"/>
<path d="M479.477 17.6875C486.265 17.6875 491.768 14.1493 491.768 9.78466C491.768 5.42005 486.265 1.88184 479.477 1.88184C472.688 1.88184 467.185 5.42005 467.185 9.78466C467.185 14.1493 472.688 17.6875 479.477 17.6875Z" fill="#2F2E41"/>
<path d="M464.844 7.90284C464.845 5.87328 466.062 3.92203 468.242 2.45403C470.422 0.986032 473.397 0.114027 476.55 0.0189947C476.355 0.0130671 476.162 0 475.965 0C472.705 0 469.578 0.832618 467.273 2.31469C464.968 3.79675 463.673 5.80687 463.673 7.90283C463.673 9.99879 464.968 12.0089 467.273 13.491C469.578 14.973 472.705 15.8057 475.965 15.8057C476.162 15.8057 476.355 15.7926 476.55 15.7867C473.397 15.6916 470.422 14.8196 468.242 13.3516C466.062 11.8836 464.845 9.93239 464.844 7.90284Z" fill="#2F2E41"/>
<path d="M500.979 117.451H455.325V129.941H500.979V117.451Z" fill="#6C63FF"/>
<path opacity="0.1" d="M500.979 117.451H455.325V129.941H500.979V117.451Z" fill="black"/>
<path opacity="0.2" d="M478.152 127.131C481.102 127.131 483.494 125.593 483.494 123.696C483.494 121.799 481.102 120.261 478.152 120.261C475.201 120.261 472.809 121.799 472.809 123.696C472.809 125.593 475.201 127.131 478.152 127.131Z" fill="black"/>
<path opacity="0.2" d="M466.01 129.005H457.268V118.388H466.495V119.012H458.239V128.38H466.01V129.005Z" fill="black"/>
<path opacity="0.2" d="M499.036 129.005H490.294V128.38H498.065V119.012H489.809V118.388H499.036V129.005Z" fill="black"/>
<path d="M495.29 118.628L451.711 127.377L457.502 139.3L501.081 130.551L495.29 118.628Z" fill="#6C63FF"/>
<path opacity="0.2" d="M476.396 132.4C479.347 132.4 481.739 130.862 481.739 128.965C481.739 127.068 479.347 125.53 476.396 125.53C473.445 125.53 471.053 127.068 471.053 128.965C471.053 130.862 473.445 132.4 476.396 132.4Z" fill="black"/>
<path opacity="0.2" d="M467.266 136.359L458.922 138.034L454 127.9L462.808 126.131L463.098 126.727L455.216 128.31L459.559 137.252L466.977 135.763L467.266 136.359Z" fill="black"/>
<path opacity="0.2" d="M498.792 130.03L490.447 131.705L490.158 131.109L497.575 129.62L493.232 120.678L485.351 122.26L485.062 121.663L493.87 119.895L498.792 130.03Z" fill="black"/>
<path d="M500.926 109.868L498.246 114.11C498.246 114.11 491.17 129.423 484.801 126.024C478.432 122.625 491.649 112.387 491.649 112.387L494.022 108.466L500.926 109.868Z" fill="#FFB9B9"/>
<path d="M517.229 47.2288L525.423 46.0999C526.587 48.317 527.531 50.5795 528.248 52.8737C529.419 56.637 527.612 86.3666 526.441 89.3773C525.271 92.3879 504.045 112.447 504.045 112.447L484.944 109.783L512.547 82.9797L517.229 47.2288Z" fill="#2F2E41"/>
<path opacity="0.2" d="M512.827 66.3569L507.737 84.3566L488.649 109.311L505.828 83.1293L512.827 66.3569Z" fill="black"/>
</g>
<defs>
<clipPath id="clip0">
<rect width="565" height="234" fill="white"/>
</clipPath>
</defs>
</svg>
